<svg width="36" height="35" viewBox="0 0 36 35" fill="none" xmlns="http://www.w3.org/2000/svg">
<path fill-rule="evenodd" clip-rule="evenodd" d="M28.5 4.66667H32C32.9283 4.66667 33.8185 5.03542 34.4749 5.69179C35.1312 6.34817 35.5 7.23841 35.5 8.16667V31.5C35.5 32.4283 35.1312 33.3185 34.4749 33.9749C33.8185 34.6312 32.9283 35 32 35H4C3.07174 35 2.1815 34.6312 1.52513 33.9749C0.868749 33.3185 0.5 32.4283 0.5 31.5L0.5 8.16667C0.5 7.23841 0.868749 6.34817 1.52513 5.69179C2.1815 5.03542 3.07174 4.66667 4 4.66667H7.5V0H9.83333V4.66667H26.1667V0H28.5V4.66667ZM14.5 18.6667H7.5V16.3333H14.5V18.6667ZM28.5 16.3333H21.5V18.6667H28.5V16.3333ZM14.5 25.6667H7.5V23.3333H14.5V25.6667ZM21.5 25.6667H28.5V23.3333H21.5V25.6667Z" fill="#F8F8F8"/>
</svg>
