<svg width="21" height="21" viewBox="0 0 21 21" fill="none" xmlns="http://www.w3.org/2000/svg">
<g clip-path="url(#clip0_410_411)">
<path d="M5.95665 0C6.15158 0 6.33853 0.0774373 6.47637 0.215277C6.61421 0.353116 6.69165 0.540066 6.69165 0.735V2.10945H14.5845V0.74445C14.5845 0.549516 14.6619 0.362566 14.7998 0.224727C14.9376 0.0868873 15.1246 0.00945 15.3195 0.00945C15.5144 0.00945 15.7014 0.0868873 15.8392 0.224727C15.9771 0.362566 16.0545 0.549516 16.0545 0.74445V2.10945H18.9C19.4568 2.10945 19.9908 2.33056 20.3846 2.72415C20.7783 3.11775 20.9997 3.65163 21 4.2084V18.901C20.9997 19.4578 20.7783 19.9917 20.3846 20.3853C19.9908 20.7789 19.4568 21 18.9 21H2.1C1.54323 21 1.00924 20.7789 0.615447 20.3853C0.221651 19.9917 0.000278386 19.4578 0 18.901L0 4.2084C0.000278386 3.65163 0.221651 3.11775 0.615447 2.72415C1.00924 2.33056 1.54323 2.10945 2.1 2.10945H5.22165V0.73395C5.22193 0.539198 5.29949 0.352517 5.4373 0.214905C5.57511 0.0772929 5.7619 -1.98727e-07 5.95665 0ZM1.47 8.1291V18.901C1.47 18.9838 1.4863 19.0657 1.51796 19.1421C1.54962 19.2186 1.59602 19.288 1.65452 19.3465C1.71302 19.405 1.78247 19.4514 1.85891 19.4831C1.93534 19.5148 2.01727 19.531 2.1 19.531H18.9C18.9827 19.531 19.0647 19.5148 19.1411 19.4831C19.2175 19.4514 19.287 19.405 19.3455 19.3465C19.404 19.288 19.4504 19.2186 19.482 19.1421C19.5137 19.0657 19.53 18.9838 19.53 18.901V8.1438L1.47 8.1291ZM7.00035 15.3499V17.0992H5.25V15.3499H7.00035ZM11.3746 15.3499V17.0992H9.62535V15.3499H11.3746ZM15.75 15.3499V17.0992H13.9996V15.3499H15.75ZM7.00035 11.1741V12.9234H5.25V11.1741H7.00035ZM11.3746 11.1741V12.9234H9.62535V11.1741H11.3746ZM15.75 11.1741V12.9234H13.9996V11.1741H15.75ZM5.22165 3.5784H2.1C2.01727 3.5784 1.93534 3.5947 1.85891 3.62636C1.78247 3.65802 1.71302 3.70442 1.65452 3.76292C1.59602 3.82142 1.54962 3.89087 1.51796 3.96731C1.4863 4.04374 1.47 4.12567 1.47 4.2084V6.66015L19.53 6.67485V4.2084C19.53 4.12567 19.5137 4.04374 19.482 3.96731C19.4504 3.89087 19.404 3.82142 19.3455 3.76292C19.287 3.70442 19.2175 3.65802 19.1411 3.62636C19.0647 3.5947 18.9827 3.5784 18.9 3.5784H16.0545V4.55385C16.0545 4.74878 15.9771 4.93573 15.8392 5.07357C15.7014 5.21141 15.5144 5.28885 15.3195 5.28885C15.1246 5.28885 14.9376 5.21141 14.7998 5.07357C14.6619 4.93573 14.5845 4.74878 14.5845 4.55385V3.5784H6.69165V4.5444C6.69165 4.73933 6.61421 4.92628 6.47637 5.06412C6.33853 5.20196 6.15158 5.2794 5.95665 5.2794C5.76172 5.2794 5.57477 5.20196 5.43693 5.06412C5.29909 4.92628 5.22165 4.73933 5.22165 4.5444V3.5784Z" fill="#F8F8F8"/>
</g>
<defs>
<clipPath id="clip0_410_411">
<rect width="21" height="21" fill="white"/>
</clipPath>
</defs>
</svg>
