<svg width="21" height="21" viewBox="0 0 21 21" fill="none" xmlns="http://www.w3.org/2000/svg">
<path d="M7.70005 9.79999C6.77179 9.79999 5.88155 9.43125 5.22518 8.77487C4.5688 8.11849 4.20005 7.22825 4.20005 6.29999V3.49999C4.20005 3.31434 4.2738 3.13629 4.40507 3.00502C4.53635 2.87374 4.7144 2.79999 4.90005 2.79999H5.60005C5.7857 2.79999 5.96375 2.72624 6.09502 2.59497C6.2263 2.46369 6.30005 2.28565 6.30005 2.09999C6.30005 1.91434 6.2263 1.73629 6.09502 1.60502C5.96375 1.47374 5.7857 1.39999 5.60005 1.39999H4.90005C4.34309 1.39999 3.80895 1.62124 3.41512 2.01507C3.0213 2.4089 2.80005 2.94304 2.80005 3.49999V6.29999C2.80095 7.09081 2.99379 7.86959 3.36201 8.56945C3.73023 9.26931 4.26282 9.86934 4.91405 10.318C5.54036 10.8691 6.0482 11.5417 6.40678 12.2949C6.76536 13.0482 6.96719 13.8664 7.00005 14.7C7.00005 15.9996 7.5163 17.2459 8.43523 18.1648C9.35416 19.0837 10.6005 19.6 11.9001 19.6C13.1996 19.6 14.4459 19.0837 15.3649 18.1648C16.2838 17.2459 16.8001 15.9996 16.8001 14.7V13.902C17.4599 13.7316 18.035 13.3264 18.4175 12.7624C18.8 12.1983 18.9636 11.5142 18.8777 10.8381C18.7919 10.162 18.4624 9.54048 17.951 9.08997C17.4397 8.63946 16.7816 8.39091 16.1001 8.39091C15.4186 8.39091 14.7604 8.63946 14.2491 9.08997C13.7377 9.54048 13.4082 10.162 13.3224 10.8381C13.2365 11.5142 13.4001 12.1983 13.7826 12.7624C14.1651 13.3264 14.7402 13.7316 15.4001 13.902V14.7C15.4001 15.6283 15.0313 16.5185 14.3749 17.1749C13.7185 17.8312 12.8283 18.2 11.9001 18.2C10.9718 18.2 10.0816 17.8312 9.42518 17.1749C8.7688 16.5185 8.40005 15.6283 8.40005 14.7C8.43468 13.8654 8.6387 13.0465 8.99971 12.2932C9.36073 11.5399 9.87119 10.8678 10.5001 10.318C11.1487 9.86778 11.6786 9.26707 12.0443 8.56731C12.41 7.86754 12.6007 7.08957 12.6001 6.29999V3.49999C12.6001 2.94304 12.3788 2.4089 11.985 2.01507C11.5911 1.62124 11.057 1.39999 10.5001 1.39999H9.80005C9.6144 1.39999 9.43635 1.47374 9.30508 1.60502C9.1738 1.73629 9.10005 1.91434 9.10005 2.09999C9.10005 2.28565 9.1738 2.46369 9.30508 2.59497C9.43635 2.72624 9.6144 2.79999 9.80005 2.79999H10.5001C10.6857 2.79999 10.8637 2.87374 10.995 3.00502C11.1263 3.13629 11.2001 3.31434 11.2001 3.49999V6.29999C11.2001 6.75962 11.1095 7.21475 10.9336 7.63939C10.7577 8.06403 10.4999 8.44986 10.1749 8.77487C9.84992 9.09987 9.46408 9.35768 9.03944 9.53357C8.6148 9.70946 8.15968 9.79999 7.70005 9.79999ZM16.1001 12.6C15.7287 12.6 15.3727 12.4525 15.1101 12.1899C14.8476 11.9274 14.7001 11.5713 14.7001 11.2C14.7001 10.8287 14.8476 10.4726 15.1101 10.21C15.3727 9.94749 15.7287 9.79999 16.1001 9.79999C16.4714 9.79999 16.8275 9.94749 17.09 10.21C17.3526 10.4726 17.5001 10.8287 17.5001 11.2C17.5001 11.5713 17.3526 11.9274 17.09 12.1899C16.8275 12.4525 16.4714 12.6 16.1001 12.6Z" fill="#F8F8F8"/>
</svg>
