<svg width="21" height="21" viewBox="0 0 21 21" fill="none" xmlns="http://www.w3.org/2000/svg">
<path d="M10.5 2.625C11.149 2.625 11.7834 2.81744 12.323 3.17799C12.8626 3.53854 13.2831 4.051 13.5315 4.65057C13.7798 5.25014 13.8448 5.90989 13.7182 6.54639C13.5916 7.18289 13.2791 7.76755 12.8202 8.22644C12.3613 8.68534 11.7766 8.99784 11.1401 9.12445C10.5036 9.25106 9.84389 9.18608 9.24432 8.93773C8.64475 8.68938 8.13229 8.26881 7.77174 7.72921C7.41119 7.18962 7.21875 6.55522 7.21875 5.90625C7.21875 5.03601 7.56445 4.20141 8.17981 3.58606C8.79516 2.9707 9.62976 2.625 10.5 2.625ZM10.5 1.3125C9.59144 1.3125 8.70329 1.58192 7.94785 2.08669C7.19241 2.59145 6.60362 3.3089 6.25593 4.1483C5.90824 4.9877 5.81727 5.91135 5.99452 6.80245C6.17177 7.69355 6.60928 8.51207 7.25173 9.15452C7.89418 9.79697 8.7127 10.2345 9.6038 10.4117C10.4949 10.589 11.4186 10.498 12.258 10.1503C13.0973 9.80263 13.8148 9.21384 14.3196 8.4584C14.8243 7.70296 15.0938 6.81481 15.0938 5.90625C15.0938 4.68791 14.6098 3.51947 13.7483 2.65798C12.8868 1.79648 11.7183 1.3125 10.5 1.3125ZM17.0625 19.6875H15.75V16.4062C15.75 15.9754 15.6651 15.5487 15.5002 15.1506C15.3353 14.7525 15.0936 14.3907 14.7889 14.0861C14.4843 13.7814 14.1225 13.5397 13.7244 13.3748C13.3263 13.2099 12.8996 13.125 12.4688 13.125H8.53125C7.66101 13.125 6.82641 13.4707 6.21106 14.0861C5.5957 14.7014 5.25 15.536 5.25 16.4062V19.6875H3.9375V16.4062C3.9375 15.1879 4.42148 14.0195 5.28298 13.158C6.14447 12.2965 7.31291 11.8125 8.53125 11.8125H12.4688C13.6871 11.8125 14.8555 12.2965 15.717 13.158C16.5785 14.0195 17.0625 15.1879 17.0625 16.4062V19.6875Z" fill="#F8F8F8"/>
</svg>
