<svg width="448" height="391" viewBox="0 0 448 391" fill="none" xmlns="http://www.w3.org/2000/svg">
<path d="M361.196 390.053C396.032 390.053 424.271 372.609 424.271 351.09C424.271 329.572 396.032 312.128 361.196 312.128C326.361 312.128 298.121 329.572 298.121 351.09C298.121 372.609 326.361 390.053 361.196 390.053Z" fill="#5049C2"/>
<path d="M211.466 281.177L171.049 257.85C170.378 257.506 169.635 257.327 168.881 257.327C168.127 257.327 167.384 257.506 166.713 257.85L32.7551 335.202C32.4926 335.29 32.2643 335.458 32.1025 335.683C31.9407 335.907 31.8537 336.177 31.8537 336.454C31.8537 336.73 31.9407 337 32.1025 337.225C32.2643 337.449 32.4926 337.617 32.7551 337.705L73.1627 361.042C73.8359 361.378 74.578 361.553 75.3305 361.553C76.083 361.553 76.8252 361.378 77.4984 361.042L89.4383 354.145L199.517 290.76L211.476 283.728C211.746 283.641 211.982 283.47 212.149 283.24C212.316 283.01 212.405 282.733 212.404 282.449C212.403 282.165 212.311 281.888 212.143 281.66C211.974 281.431 211.737 281.262 211.466 281.177Z" fill="#5049C2"/>
<path d="M393.155 336.599L386.909 333.282C386.909 333.282 387.52 302.787 393.844 279.169C400.323 254.989 419.179 228.277 436.997 238.286C454.814 248.296 423.146 268.869 413.621 288.723C404.096 308.578 393.155 336.599 393.155 336.599Z" fill="#00FFEA"/>
<path opacity="0.15" d="M393.155 336.599L386.909 333.282C386.909 333.282 387.52 302.787 393.844 279.169C400.323 254.989 419.179 228.277 436.997 238.286C454.814 248.296 423.146 268.869 413.621 288.723C404.096 308.578 393.155 336.599 393.155 336.599Z" fill="black"/>
<path d="M392.331 329.364C392.248 329.361 392.167 329.342 392.091 329.308C392.015 329.274 391.947 329.226 391.891 329.165C391.834 329.105 391.79 329.034 391.76 328.957C391.731 328.879 391.717 328.797 391.72 328.714C393.058 281.391 413.747 252.496 431.061 242.137C431.205 242.051 431.377 242.026 431.54 242.066C431.703 242.107 431.842 242.211 431.929 242.355C432.015 242.499 432.04 242.672 431.999 242.835C431.958 242.997 431.854 243.137 431.71 243.223C414.669 253.418 394.31 281.934 392.981 328.743C392.979 328.827 392.962 328.909 392.928 328.986C392.895 329.062 392.846 329.132 392.786 329.189C392.725 329.247 392.654 329.292 392.576 329.322C392.498 329.352 392.414 329.366 392.331 329.364Z" fill="white"/>
<path d="M395.978 338.055L390.401 335.194C390.401 335.194 391.089 320.218 402.564 300.703C412.748 283.37 433.388 269.791 442.06 274.631C448.791 278.375 450.343 286.58 443.893 292.041C437.443 297.502 407.666 308.957 395.978 338.055Z" fill="#00FFEA"/>
<path d="M393.737 333.273C394.707 333.467 395.047 331.071 395.241 330.46C395.609 329.316 395.997 328.191 396.424 327.066C397.259 324.877 398.208 322.734 399.266 320.645C401.303 316.625 403.688 312.792 406.395 309.19C408.925 305.817 411.682 302.621 414.649 299.626C417.326 296.932 420.143 294.381 423.088 291.983C425.551 289.965 428.112 288.055 430.74 286.26C432.68 284.941 434.62 283.68 436.647 282.497C437.705 281.876 438.762 281.265 439.858 280.702L440.168 280.547C440.342 280.462 440.475 280.312 440.537 280.129C440.6 279.946 440.588 279.746 440.503 279.572C440.418 279.399 440.268 279.266 440.085 279.203C439.902 279.14 439.702 279.153 439.528 279.238C438.849 279.568 438.199 279.936 437.588 280.305C435.881 281.275 434.213 282.245 432.574 283.331C430.142 284.902 427.769 286.564 425.454 288.316C422.583 290.489 419.825 292.794 417.181 295.232C414.166 297.993 411.328 300.941 408.684 304.059C405.817 307.42 403.223 311.004 400.925 314.776C398.48 318.769 396.433 322.993 394.814 327.386C394.51 328.233 394.219 329.077 393.941 329.917C393.533 330.756 393.286 331.664 393.214 332.594C393.225 332.742 393.278 332.883 393.365 333.003C393.453 333.123 393.571 333.216 393.708 333.273H393.737Z" fill="white"/>
<path d="M77.2169 310.004C77.2169 310.004 77.3721 290.984 69.8939 275.242C62.4156 259.5 50.7181 248.85 38.8558 246.415C26.9934 243.981 16.0525 253.777 27.8857 262.904C39.719 272.031 61.4554 282.594 68.4001 312.158L77.2169 310.004Z" fill="#00FFEA"/>
<path opacity="0.15" d="M77.2169 310.004C77.2169 310.004 77.3721 290.984 69.8939 275.242C62.4156 259.5 50.7181 248.85 38.8558 246.415C26.9934 243.981 16.0525 253.777 27.8857 262.904C39.719 272.031 61.4554 282.594 68.4001 312.158L77.2169 310.004Z" fill="black"/>
<path d="M72.2701 306.716C72.1464 306.716 72.0272 306.669 71.9371 306.584C71.8469 306.499 71.7925 306.383 71.7851 306.26C69.9616 275.814 44.879 256.017 32.4832 252.642C32.3601 252.608 32.2554 252.526 32.1918 252.416C32.1283 252.305 32.111 252.173 32.1437 252.05C32.1778 251.924 32.2601 251.817 32.3727 251.752C32.4852 251.687 32.619 251.668 32.7451 251.701C45.3543 255.144 70.9025 275.27 72.7551 306.202C72.7581 306.329 72.7128 306.453 72.6282 306.548C72.5436 306.644 72.4261 306.704 72.2992 306.716H72.2701Z" fill="white"/>
<path d="M78.7494 336.115C81.1522 333.083 82.7646 329.501 83.4418 325.692C84.1189 321.883 83.8397 317.966 82.6291 314.291C81.925 312.072 80.7986 310.011 79.3119 308.219C78.1189 306.813 76.4021 306.085 75.0054 304.912C71.9986 302.419 68.5068 299.771 67.4205 295.814C66.5475 292.662 66.7318 289.674 64.9859 286.716C63.9572 284.863 62.3191 283.424 60.3496 282.642C57.7793 281.672 54.947 282.312 52.2312 282.642C48.3514 283.079 45.4416 281.74 42.0856 279.955C38.3902 278.015 34.0739 276.483 30.0681 277.676C28.7653 278.062 27.5581 278.717 26.5248 279.6C25.4915 280.482 24.6552 281.572 24.0699 282.798C23.4847 284.024 23.1636 285.36 23.1275 286.718C23.0914 288.077 23.3411 289.427 23.8605 290.683C24.7528 292.856 26.4017 294.621 27.6141 296.638C28.8266 298.656 29.4667 300.964 28.5841 303.166C27.9051 304.795 26.6442 306.076 26.1398 307.734C24.7043 312.099 25.5094 315.979 29.845 318.229C34.3746 320.547 41.4843 318.801 43.7539 324.495C44.6075 326.658 44.6366 329.054 45.1021 331.333C46.0578 335.92 48.7249 339.971 52.561 342.662C57.7696 346.28 64.8404 345.397 70.243 342.875C73.5621 341.308 76.4736 338.994 78.7494 336.115Z" fill="#00FFEA"/>
<path d="M37.9146 308.568C38.0205 308.586 38.1295 308.569 38.2249 308.52C42.0452 307.043 46.145 306.43 50.2301 306.725C54.3152 307.021 58.2844 308.216 61.8527 310.227C61.9749 310.292 62.1181 310.307 62.2508 310.267C62.3835 310.227 62.495 310.136 62.5607 310.014C62.5948 309.954 62.6165 309.888 62.6247 309.82C62.6329 309.752 62.6273 309.683 62.6083 309.617C62.5894 309.551 62.5573 309.489 62.5142 309.436C62.471 309.382 62.4176 309.338 62.357 309.305C58.6498 307.223 54.5272 305.989 50.2858 305.69C46.0445 305.392 41.7896 306.037 37.8273 307.579C37.7341 307.63 37.6587 307.708 37.611 307.803C37.5634 307.898 37.5457 308.006 37.5605 308.111C37.5752 308.216 37.6216 308.314 37.6935 308.393C37.7654 308.471 37.8594 308.525 37.9631 308.549L37.9146 308.568Z" fill="white"/>
<path d="M71.7853 336.28C71.6583 336.282 71.5353 336.235 71.4428 336.148C71.3503 336.061 71.2957 335.941 71.2906 335.814C70.3886 313.893 48.3806 290.712 33.6278 284.407C33.5682 284.383 33.5141 284.347 33.4686 284.301C33.4231 284.256 33.3871 284.202 33.3627 284.142C33.3383 284.082 33.3261 284.019 33.3266 283.954C33.3272 283.89 33.3405 283.826 33.3659 283.767C33.419 283.648 33.5172 283.554 33.6389 283.507C33.7606 283.46 33.8961 283.463 34.0158 283.515C49.0014 289.936 71.3488 313.505 72.2702 335.795C72.2728 335.86 72.2626 335.924 72.2401 335.985C72.2176 336.046 72.1833 336.102 72.1392 336.15C72.0951 336.198 72.0419 336.236 71.9829 336.264C71.9238 336.291 71.8599 336.306 71.795 336.309L71.7853 336.28Z" fill="white"/>
<path d="M193.26 23.0567L83.4828 86.413C82.3957 87.1227 81.4922 88.0798 80.8465 89.2061C80.2007 90.3323 79.8311 91.5955 79.7679 92.8922V351.41C79.7679 353.776 81.4362 354.737 83.4828 353.544L193.26 290.168C194.34 289.46 195.239 288.508 195.884 287.39C196.529 286.271 196.903 285.017 196.975 283.728V25.1711C196.975 22.8045 195.307 21.8345 193.26 23.0567ZM191.631 264.571C191.631 266.598 190.205 267.888 188.45 268.897L87.9251 326.958C86.1792 327.928 84.7437 327.152 84.7437 325.115V110.128C84.7441 109.016 85.0374 107.924 85.5943 106.962C86.1511 106 86.9517 105.202 87.9154 104.648L188.44 46.5777C188.762 46.3903 189.129 46.2912 189.502 46.2903C189.875 46.2894 190.241 46.3867 190.565 46.5725C190.888 46.7584 191.157 47.0261 191.344 47.3488C191.531 47.6715 191.63 48.0378 191.631 48.4108V264.571Z" fill="#455A64"/>
<path d="M191.631 264.572C191.631 266.599 190.205 267.889 188.45 268.897L87.925 326.958C86.1791 327.928 84.7436 327.152 84.7436 325.115V110.128C84.744 109.017 85.0374 107.925 85.5942 106.963C86.151 106 86.9516 105.202 87.9153 104.648L188.44 46.5777C188.762 46.3904 189.129 46.2912 189.502 46.2904C189.875 46.2895 190.241 46.3868 190.565 46.5726C190.888 46.7585 191.157 47.0262 191.344 47.3489C191.531 47.6716 191.63 48.0379 191.631 48.4109V264.572Z" fill="#263238"/>
<path d="M87.925 326.958L188.45 268.917C189.155 268.536 189.807 268.063 190.389 267.511L84.7436 208.015V325.115C84.7436 327.152 86.1791 327.967 87.925 326.958Z" fill="#37474F"/>
<path d="M183.493 260.798V49.4391L87.9153 104.648C86.9516 105.202 86.151 106 85.5942 106.962C85.0374 107.925 84.744 109.016 84.7436 110.128V320.304L180.312 265.124C182.067 264.116 183.493 262.825 183.493 260.798Z" fill="#00FFEA"/>
<path d="M83.0173 353.806C81.9088 354.273 80.712 354.495 79.5097 354.454C78.3073 354.414 77.128 354.114 76.0532 353.573L71.8048 351.119C70.7207 350.417 69.8181 349.469 69.1708 348.351C68.5235 347.233 68.1498 345.978 68.0803 344.689V86.1028C68.1047 85.1444 68.3224 84.2009 68.7204 83.3287C68.8562 83.0281 69.0017 82.7371 69.1666 82.4364L80.8059 89.226C80.5612 89.6632 80.3473 90.1169 80.1657 90.5839C79.8832 91.3184 79.729 92.0959 79.7098 92.8826V351.41C79.768 353.593 81.1841 354.582 83.0173 353.806Z" fill="#263238"/>
<path d="M141.65 301.72C144.026 301.72 144.278 304.388 144.278 305.532C144.136 307.825 143.464 310.054 142.315 312.044C141.165 314.033 139.57 315.729 137.654 316.997C136.885 317.485 136.003 317.766 135.093 317.812C132.717 317.812 132.465 315.144 132.465 314C132.608 311.707 133.279 309.478 134.427 307.487C135.574 305.496 137.167 303.798 139.08 302.525C139.855 302.045 140.739 301.768 141.65 301.72Z" fill="#00FFEA"/>
<path d="M138.294 58.8573C139.264 58.2753 140.108 58.7409 140.108 59.9048C140.073 60.534 139.89 61.1462 139.575 61.6921C139.26 62.2379 138.821 62.7021 138.294 63.0474C137.324 63.6197 136.471 63.1541 136.471 61.9999C136.504 61.369 136.686 60.7551 137.003 60.2087C137.32 59.6624 137.763 59.1991 138.294 58.8573Z" fill="#263238"/>
<path d="M126.577 74.1725C127.47 73.6584 128.187 74.0755 128.187 75.1424C128.158 75.7006 127.997 76.2438 127.717 76.7277C127.437 77.2115 127.046 77.6222 126.577 77.9262C125.685 78.4402 124.967 78.0231 124.967 76.9562C124.998 76.3984 125.16 75.8558 125.44 75.3722C125.72 74.8886 126.109 74.4776 126.577 74.1725Z" fill="#263238"/>
<path d="M131.96 70.991L149.991 60.5836C150.961 60.0113 151.776 60.4187 151.776 61.4857C151.729 62.0848 151.543 62.6648 151.233 63.1798C150.924 63.6949 150.498 64.131 149.991 64.4537L131.96 74.8611C130.99 75.4334 130.176 75.026 130.176 73.9591C130.223 73.3599 130.409 72.7799 130.718 72.2649C131.028 71.7498 131.453 71.3137 131.96 70.991Z" fill="#263238"/>
<path d="M196.937 24.5795C196.665 22.6396 195.123 21.951 193.27 23.0276L83.4731 86.4131C82.3745 87.0951 81.472 88.051 80.8543 89.1871L69.215 82.3975C69.8424 81.2705 70.7472 80.3223 71.8436 79.6429L181.573 16.2671C182.724 15.6834 183.997 15.3792 185.288 15.3792C186.579 15.3792 187.851 15.6834 189.003 16.2671L193.27 18.7114C194.265 19.3711 195.107 20.2362 195.739 21.2484C196.371 22.2605 196.78 23.3964 196.937 24.5795Z" fill="#37474F"/>
<path d="M168.14 32.4292C167.57 32.7335 166.936 32.8984 166.29 32.9102C165.644 32.922 165.005 32.7804 164.425 32.4971C164.23 32.4142 164.062 32.2803 163.937 32.1096C163.813 31.9388 163.736 31.7376 163.717 31.5272C163.717 31.2556 163.717 30.2469 163.717 29.9656C163.748 29.7235 163.841 29.4937 163.987 29.2982C164.133 29.1028 164.327 28.9484 164.551 28.8502L176.316 22.0606C176.888 21.7584 177.523 21.5949 178.17 21.5831C178.817 21.5713 179.458 21.7116 180.041 21.9927C180.232 22.0795 180.396 22.2146 180.519 22.3848C180.641 22.5549 180.717 22.7541 180.739 22.9626C180.739 23.2439 180.739 24.2914 180.739 24.563C180.709 24.8065 180.616 25.038 180.47 25.2351C180.324 25.4322 180.129 25.5882 179.905 25.6882L168.14 32.4292Z" fill="#00FFEA"/>
<path opacity="0.25" d="M168.14 32.4292C167.57 32.7335 166.936 32.8984 166.29 32.9102C165.644 32.922 165.005 32.7804 164.425 32.4971C164.23 32.4142 164.062 32.2803 163.937 32.1096C163.813 31.9388 163.736 31.7376 163.717 31.5272C163.717 31.2556 163.717 30.2469 163.717 29.9656C163.748 29.7235 163.841 29.4937 163.987 29.2982C164.133 29.1028 164.327 28.9484 164.551 28.8502L176.316 22.0606C176.888 21.7584 177.523 21.5949 178.17 21.5831C178.817 21.5713 179.458 21.7116 180.041 21.9927C180.232 22.0795 180.396 22.2146 180.519 22.3848C180.641 22.5549 180.717 22.7541 180.739 22.9626C180.739 23.2439 180.739 24.2914 180.739 24.563C180.709 24.8065 180.616 25.038 180.47 25.2351C180.324 25.4322 180.129 25.5882 179.905 25.6882L168.14 32.4292Z" fill="black"/>
<path d="M168.139 30.8843L179.905 24.0947C180.971 23.4739 181.02 22.5137 180.031 21.9414C179.448 21.6604 178.807 21.5201 178.16 21.5318C177.513 21.5436 176.878 21.7072 176.306 22.0093L164.541 28.7989C163.483 29.41 163.425 30.3702 164.424 30.9425C165.005 31.225 165.643 31.3669 166.289 31.3568C166.934 31.3467 167.568 31.1848 168.139 30.8843Z" fill="#00FFEA"/>
<path opacity="0.3" d="M168.139 30.8843L179.905 24.0947C180.971 23.4739 181.02 22.5137 180.031 21.9414C179.448 21.6604 178.807 21.5201 178.16 21.5318C177.513 21.5436 176.878 21.7072 176.306 22.0093L164.541 28.7989C163.483 29.41 163.425 30.3702 164.424 30.9425C165.005 31.225 165.643 31.3669 166.289 31.3568C166.934 31.3467 167.568 31.1848 168.139 30.8843Z" fill="black"/>
<path d="M75.4324 125.065C75.4094 124.42 75.234 123.789 74.9204 123.224C74.6069 122.659 74.1641 122.177 73.6283 121.816C73.4528 121.686 73.2449 121.608 73.0275 121.589C72.8101 121.57 72.5917 121.612 72.3965 121.709C72.1734 121.845 71.2811 122.34 71.0483 122.485C70.8535 122.633 70.7002 122.828 70.6033 123.052C70.5065 123.277 70.4693 123.522 70.4954 123.765V152.592C70.5189 153.236 70.6935 153.866 71.0052 154.431C71.3169 154.995 71.7569 155.478 72.2898 155.841C72.4651 155.959 72.6679 156.03 72.8785 156.047C73.0891 156.064 73.3006 156.027 73.4925 155.938C73.7447 155.812 74.6468 155.288 74.8893 155.143C75.0841 154.995 75.2373 154.8 75.3342 154.575C75.4311 154.351 75.4683 154.106 75.4421 153.863L75.4324 125.065Z" fill="#00FFEA"/>
<path opacity="0.3" d="M75.4324 125.065C75.4094 124.42 75.234 123.789 74.9204 123.224C74.6069 122.659 74.1641 122.177 73.6283 121.816C73.4528 121.686 73.2449 121.608 73.0275 121.589C72.8101 121.57 72.5917 121.612 72.3965 121.709C72.1734 121.845 71.2811 122.34 71.0483 122.485C70.8535 122.633 70.7002 122.828 70.6033 123.052C70.5065 123.277 70.4693 123.522 70.4954 123.765V152.592C70.5189 153.236 70.6935 153.866 71.0052 154.431C71.3169 154.995 71.7569 155.478 72.2898 155.841C72.4651 155.959 72.6679 156.03 72.8785 156.047C73.0891 156.064 73.3006 156.027 73.4925 155.938C73.7447 155.812 74.6468 155.288 74.8893 155.143C75.0841 154.995 75.2373 154.8 75.3342 154.575C75.4311 154.351 75.4683 154.106 75.4421 153.863L75.4324 125.065Z" fill="black"/>
<path d="M74.0935 125.87V154.697C74.0935 155.919 73.2884 156.442 72.2894 155.87C71.7565 155.507 71.3164 155.024 71.0047 154.46C70.693 153.895 70.5184 153.265 70.495 152.621V123.765C70.495 122.533 71.3 122.01 72.2894 122.582C72.8292 122.948 73.2744 123.437 73.5881 124.008C73.9018 124.58 74.075 125.218 74.0935 125.87Z" fill="#00FFEA"/>
<path opacity="0.4" d="M74.0935 125.87V154.697C74.0935 155.919 73.2884 156.442 72.2894 155.87C71.7565 155.507 71.3164 155.024 71.0047 154.46C70.693 153.895 70.5184 153.265 70.495 152.621V123.765C70.495 122.533 71.3 122.01 72.2894 122.582C72.8292 122.948 73.2744 123.437 73.5881 124.008C73.9018 124.58 74.075 125.218 74.0935 125.87Z" fill="black"/>
<path d="M75.4324 163.698C75.4094 163.052 75.234 162.421 74.9204 161.856C74.6069 161.292 74.1641 160.809 73.6283 160.448C73.4528 160.319 73.2449 160.24 73.0275 160.221C72.8101 160.203 72.5917 160.244 72.3965 160.342C72.1734 160.477 71.2811 160.972 71.0483 161.118C70.8535 161.265 70.7002 161.461 70.6033 161.685C70.5065 161.909 70.4693 162.155 70.4954 162.398V175.977C70.5204 176.62 70.6957 177.248 71.0073 177.81C71.319 178.373 71.7582 178.855 72.2898 179.217C72.4594 179.342 72.6594 179.42 72.8692 179.442C73.0789 179.464 73.2908 179.43 73.4828 179.343C73.735 179.217 74.6371 178.693 74.8796 178.547C75.0736 178.401 75.2265 178.208 75.3233 177.985C75.4202 177.762 75.4578 177.518 75.4324 177.277V163.698Z" fill="#00FFEA"/>
<path opacity="0.3" d="M75.4324 163.698C75.4094 163.052 75.234 162.421 74.9204 161.856C74.6069 161.292 74.1641 160.809 73.6283 160.448C73.4528 160.319 73.2449 160.24 73.0275 160.221C72.8101 160.203 72.5917 160.244 72.3965 160.342C72.1734 160.477 71.2811 160.972 71.0483 161.118C70.8535 161.265 70.7002 161.461 70.6033 161.685C70.5065 161.909 70.4693 162.155 70.4954 162.398V175.977C70.5204 176.62 70.6957 177.248 71.0073 177.81C71.319 178.373 71.7582 178.855 72.2898 179.217C72.4594 179.342 72.6594 179.42 72.8692 179.442C73.0789 179.464 73.2908 179.43 73.4828 179.343C73.735 179.217 74.6371 178.693 74.8796 178.547C75.0736 178.401 75.2265 178.208 75.3233 177.985C75.4202 177.762 75.4578 177.518 75.4324 177.277V163.698Z" fill="black"/>
<path d="M74.0935 164.425V178.004C74.0935 179.226 73.2884 179.76 72.2894 179.178C71.7565 178.815 71.3164 178.332 71.0047 177.767C70.693 177.203 70.5184 176.573 70.495 175.929V162.35C70.495 161.127 71.3 160.594 72.2894 161.166C72.8243 161.53 73.2662 162.015 73.5795 162.581C73.8929 163.147 74.0689 163.779 74.0935 164.425Z" fill="#00FFEA"/>
<path opacity="0.4" d="M74.0935 164.425V178.004C74.0935 179.226 73.2884 179.76 72.2894 179.178C71.7565 178.815 71.3164 178.332 71.0047 177.767C70.693 177.203 70.5184 176.573 70.495 175.929V162.35C70.495 161.127 71.3 160.594 72.2894 161.166C72.8243 161.53 73.2662 162.015 73.5795 162.581C73.8929 163.147 74.0689 163.779 74.0935 164.425Z" fill="black"/>
<path d="M107.576 139.634C107.673 140.105 107.802 140.568 107.964 141.021C108.595 142.728 109.73 144.338 109.633 146.162C109.526 148.218 107.906 149.809 106.665 151.448C105.051 153.615 103.976 156.135 103.527 158.799C103.079 161.464 103.27 164.197 104.085 166.773C105.277 169.911 106.931 172.853 108.992 175.502L113.677 182.146C115.094 184.007 116.902 185.533 118.973 186.618C122.999 188.893 127.49 190.22 132.106 190.498C139.693 191.01 147.24 189.031 153.6 184.862C160.341 180.401 157.373 168.955 164.269 164.775C172.611 159.731 176.587 142.214 166.364 134.901C166.364 134.901 168.013 124.173 164.987 121.438C161.971 118.914 158.239 117.401 154.318 117.112C148.905 116.549 143.483 117.607 138.081 117.587C132.519 117.569 126.963 117.916 121.446 118.625C119.507 118.887 116.771 119.595 115.724 121.486C115.428 122.228 115.347 123.038 115.491 123.824C115.476 125.07 115.031 126.273 114.23 127.228C113.027 128.683 111.32 129.663 110.04 131.031C108.983 132.171 108.21 133.544 107.782 135.038C107.354 136.533 107.284 138.107 107.576 139.634Z" fill="#263238"/>
<path d="M161.408 155.114C170.137 155.357 171.272 157.219 179.09 164.959C185.588 171.39 207.121 191.264 207.121 191.264L232.921 198.131L226.83 213.873C226.83 213.873 221.01 213.631 209.371 213.621C202.223 213.621 199.74 212.02 192.543 207.219C188.876 204.765 168.187 191.225 168.187 191.225L161.408 155.114Z" fill="#E6E6E6"/>
<path d="M261.467 166.298L214.182 182.961L201.146 239.218L202.203 240.343L247.16 223.572L262.514 167.423L261.467 166.298Z" fill="#00FFEA"/>
<path opacity="0.35" d="M215.23 184.086L202.203 240.343L201.146 239.218L214.182 182.961L215.23 184.086Z" fill="black"/>
<path opacity="0.25" d="M262.514 167.422L215.23 184.086L202.203 240.343L247.16 223.572L262.514 167.422Z" fill="black"/>
<g opacity="0.2">
<path d="M240.128 212.127C240.564 213.232 244.192 215.667 249.439 215.23L250.322 211.991L240.128 212.127Z" fill="black"/>
</g>
<g opacity="0.1">
<path d="M248.275 178.946L248.663 177.054C248.877 176.016 246.103 176.56 242.465 178.276L233.93 180.856C230.293 182.573 226.859 183.853 226.636 184.891L226.248 186.773L248.275 178.946Z" fill="black"/>
</g>
<path d="M251.088 170.41C251.224 169.76 250.119 169.896 248.635 170.294L245.909 171.215C245.909 171.215 247.024 168.48 240.574 170.245C233.484 172.185 233.329 175.706 233.329 175.706C232.22 176.187 231.083 176.601 229.924 176.947C227.567 177.714 227.315 178.17 227.121 178.829L226.772 180.022L250.875 171.545C250.875 171.545 250.991 171.06 251.088 170.41Z" fill="#37474F"/>
<path d="M248.547 174.028C246.316 174.998 245.395 175.531 245.055 177.141C244.677 178.975 244.599 179.741 244.599 179.741L232.048 184.688C232.048 184.688 232.727 181.981 232.892 181.079C233.057 180.177 231.399 180.177 229.226 181.176L229.74 178.926L249.265 171.681L248.547 174.028Z" fill="#37474F"/>
<path d="M248.915 178.974C248.915 178.974 249.1 178.131 249.313 177.083C249.526 176.036 246.752 176.588 243.115 178.305L234.58 180.885C230.942 182.602 227.499 183.882 227.286 184.92L226.898 186.86L248.915 178.974Z" fill="#37474F"/>
<path d="M257.257 186.666C257.257 186.666 255.579 192.835 255.133 194.426C254.687 196.016 246.947 199.557 243.077 200.042C235.666 200.963 234.822 202.563 236.597 207.801C238.246 212.651 243.067 214.494 249.759 213.708C252.902 213.339 257.238 210.556 258.945 205.696C261.117 199.489 259.915 192.864 260.817 189.207C261.719 185.551 259.139 184.503 257.257 186.666Z" fill="#FFA8A7"/>
<path d="M183.988 271.497L178.973 274.407L176.869 275.619L149.283 291.536L145.52 293.67L139.167 297.336L141.107 277.54L144.812 239.208V238.81L144.987 237.093L149.836 186.976L151.96 165.046L152.707 157.18L152.96 154.639H153.095C155.342 154.014 157.716 154.014 159.962 154.639C160.463 154.791 160.95 154.985 161.417 155.221C164.327 156.666 166.267 159.479 167.877 162.437C168.273 163.157 168.629 163.899 168.944 164.658C170.14 167.533 171.062 170.514 171.699 173.562C172.969 179.188 174.609 184.94 175.258 194.008C175.361 196.343 175.237 198.681 174.89 200.992C174.453 207.106 174.378 213.24 174.667 219.363C175.482 233.233 178.973 239.518 183.988 271.497Z" fill="#5049C2"/>
<path d="M176.869 275.6L149.284 291.517L145.52 293.67L139.167 297.336L134.793 299.858L108.236 315.183C108.517 304.514 108.643 292.942 108.391 282.011C108.313 278.354 108.284 274.62 108.439 270.799C108.944 257.53 111.466 243.301 120.506 228.325L120.923 227.568C121.99 233.902 131.689 238.015 140.418 238.985L141.388 239.072C142.484 239.179 143.619 239.227 144.793 239.227H145.53C152.911 239.159 161.65 237.423 171.718 234.019C172.688 239.644 173.658 247.025 174.696 255.658C175.162 259.538 175.634 263.673 176.112 268.063C176.306 270.517 176.607 273.03 176.869 275.6Z" fill="#FFA8A7"/>
<path d="M178.974 274.387L176.869 275.6L149.284 291.517L145.52 293.67L139.167 297.336L134.793 299.858L108.236 315.183L105.326 316.861C105.472 305.377 105.569 294.126 105.559 287.065C105.559 280.498 105.704 274.659 106.063 269.48C106.771 259.256 108.246 251.565 110.709 245.745C113.6 239.376 117.02 233.26 120.932 227.462C120.932 227.462 123.357 235.648 141.495 236.938H141.612C142.678 237.016 143.804 237.064 144.987 237.084H146.364C168.944 237.084 171.437 231.39 171.437 231.39C173.643 239.762 175.388 248.249 176.665 256.812C177.144 259.838 177.606 263.071 178.052 266.512C178.382 269.033 178.692 271.652 178.974 274.387Z" fill="#00FFEA"/>
<path opacity="0.4" d="M178.974 274.387L176.869 275.6L149.284 291.517L145.52 293.67L139.167 297.336L134.793 299.858L108.236 315.183L105.326 316.861C105.472 305.377 105.569 294.126 105.559 287.065C105.559 280.498 105.704 274.659 106.063 269.48C106.771 259.256 108.246 251.565 110.709 245.745C113.6 239.376 117.02 233.26 120.932 227.462C120.932 227.462 123.357 235.648 141.495 236.938H141.612C142.678 237.016 143.804 237.064 144.987 237.084H146.364C168.944 237.084 171.437 231.39 171.437 231.39C173.643 239.762 175.388 248.249 176.665 256.812C177.144 259.838 177.606 263.071 178.052 266.512C178.382 269.033 178.692 271.652 178.974 274.387Z" fill="black"/>
<path opacity="0.2" d="M166.024 261.516C166.024 261.516 163.503 269.528 152.892 274.019L152.387 276.473L149.283 291.516L145.52 293.67L147.77 277.074L148.74 269.858C155.298 269.178 161.412 266.227 166.024 261.516Z" fill="black"/>
<path d="M133.754 156.957L123.085 158.082C116.024 159.809 112.833 162.932 112.105 169.168C111.766 172.078 110.01 179.838 112.474 189.537C114.705 198.344 120.66 219.896 120.66 219.896C120.66 219.896 106.955 237.782 104.472 268.451C129.555 284.824 168.032 276.027 178.44 266.133C177.567 256.764 171.582 231.051 170.835 222.699C170.835 222.699 171.388 209.654 172.426 203.999C180.36 195.337 179.351 187.054 175.792 180.371C169.215 168.034 159.303 157.19 156.092 157.199L133.754 156.957Z" fill="#00FFEA"/>
<path opacity="0.7" d="M133.754 156.957L123.085 158.082C116.024 159.809 112.833 162.932 112.105 169.168C111.766 172.078 110.01 179.838 112.474 189.537C114.705 198.344 120.66 219.896 120.66 219.896C120.66 219.896 106.955 237.782 104.472 268.451C129.555 284.824 168.032 276.027 178.44 266.133C177.567 256.764 171.582 231.051 170.835 222.699C170.835 222.699 171.388 209.654 172.426 203.999C180.36 195.337 179.351 187.054 175.792 180.371C169.215 168.034 159.303 157.19 156.092 157.199L133.754 156.957Z" fill="white"/>
<path d="M142.998 223.737C142.998 223.931 142.998 224.106 142.998 224.251V224.503C143.004 224.584 143.004 224.665 142.998 224.746C142.629 228.626 142.193 232.748 141.727 236.948C141.727 236.948 141.727 236.948 141.727 237.006C141.66 237.685 141.582 238.364 141.504 239.053C140.079 251.71 138.381 265.241 137.072 277.559C136.752 280.547 136.461 283.456 136.199 286.289C135.791 290.527 135.355 295.173 134.909 299.868L108.352 315.193L105.442 316.871L98.022 321.148C99.5157 306.454 102.998 272.409 104.938 257.045C105.161 255.309 105.452 253.573 105.781 251.846L106.043 250.585L106.16 250.071C106.286 249.489 106.412 248.927 106.548 248.354C106.684 247.782 106.81 247.297 106.936 246.783C107.236 245.609 107.556 244.455 107.906 243.33C108.071 242.787 108.226 242.244 108.4 241.71C108.575 241.177 108.72 240.643 108.895 240.119C109.244 239.072 109.584 238.044 109.943 237.045C109.938 237.026 109.938 237.006 109.943 236.987C110.107 236.511 110.282 236.017 110.457 235.57C110.689 234.911 110.932 234.271 111.174 233.631L111.465 232.864C111.611 232.515 111.737 232.176 111.873 231.836C112.348 230.643 112.843 229.508 113.279 228.451C113.376 228.218 113.483 227.986 113.58 227.762C113.677 227.539 113.832 227.21 113.948 226.938C114.239 226.259 114.53 225.629 114.812 224.998C114.928 224.727 115.054 224.465 115.17 224.212C115.287 223.96 115.452 223.631 115.578 223.359L115.762 222.971L115.956 222.593C115.969 222.543 115.992 222.497 116.024 222.457C116.051 222.386 116.083 222.318 116.121 222.253C116.145 222.21 116.164 222.164 116.179 222.117C116.26 221.98 116.331 221.838 116.393 221.691L117.042 220.43C117.042 220.362 117.11 220.313 117.13 220.255L117.382 219.79L109.312 186.327L105.297 169.702V169.43C105.481 167.956 106.713 161.002 113.813 158.887C117.821 157.852 121.927 157.241 126.063 157.064C127.654 156.967 129.089 156.928 130.263 156.899H132.115H133.231C133.233 156.921 133.233 156.944 133.231 156.967C133.289 157.112 133.454 157.549 133.706 158.228C133.733 158.341 133.772 158.452 133.822 158.557C133.823 158.573 133.823 158.59 133.822 158.606C135.568 163.397 140.467 177.345 142.901 189.46C143.328 191.555 143.677 193.601 143.929 195.541C144.657 201.603 144.123 211.749 142.998 223.737Z" fill="#FAFAFA"/>
<path d="M117.644 203.766C117.644 203.766 118.614 198.984 120.04 188.655C121.698 176.744 121.107 170.856 119.312 167.093L109.196 186.385L117.266 219.848C117.266 219.848 108.973 235.037 105.626 251.856C113.56 229.44 122.241 222.758 122.241 222.758L117.644 203.766Z" fill="#E6E6E6"/>
<path d="M153.086 149.488C156.228 149.488 156.597 150.012 159.303 153.64C160.913 155.803 171.107 172.631 171.107 172.631C171.107 172.631 162.998 161.962 156.878 158.722C155.7 158.032 154.425 157.522 153.095 157.209L153.086 149.488Z" fill="#EBEBEB"/>
<path d="M129.846 185.25C129.846 184.28 129.749 182.185 129.584 179.547C128.779 166.608 128.391 154.969 132.756 153.999L133.134 155.783C129.953 156.472 131 173.126 131.398 179.392C131.573 182.088 131.708 184.241 131.66 185.289L129.846 185.25Z" fill="#00FFEA"/>
<path d="M115.297 100.536L122.086 106.093C122.455 105.671 122.734 105.178 122.906 104.644C123.078 104.109 123.139 103.546 123.085 102.988C123.032 102.429 122.865 101.887 122.595 101.396C122.324 100.904 121.957 100.473 121.514 100.128C120.621 99.3901 119.48 99.0211 118.324 99.0968C117.169 99.1726 116.085 99.6873 115.297 100.536Z" fill="#263238"/>
<path d="M133.027 150.313C133.027 146.055 123.105 139.643 117.983 130.691C112.862 121.738 115.423 107.015 122.445 104.755C122.503 104.755 122.697 102.863 122.726 102.728C123.115 101.019 123.769 99.3827 124.666 97.8779C127.528 92.9506 133.59 89.1484 139.215 88.3531C161.456 85.1135 171.679 93.7557 175.763 103.261C177.086 106.459 177.676 109.912 177.489 113.368C177.375 115.906 176.433 118.337 174.808 120.289C173.183 122.242 170.963 123.609 168.488 124.183L133.027 150.313Z" fill="#263238"/>
<path d="M163.881 100.08C168.236 102.02 172.378 108.644 172.31 127.286C172.252 143.096 167.402 147.093 164.958 148.266C162.513 149.44 157.732 148.838 153.086 148.13V157.209C153.086 157.209 156.568 160.633 155.345 162.786C154.123 164.939 149.613 166.763 142.6 164.561C134.657 162.068 132.843 156.802 132.843 156.802L132.659 136.879C132.659 136.879 129.991 139.682 125.287 135.57C121.407 132.165 120.011 126.336 122.93 123.135C125.85 119.934 129.594 119.682 132.969 123.261L135.394 121.981C139.72 121.476 146.063 120.749 150.738 118.392C162.727 112.291 163.968 105.676 163.881 100.08Z" fill="#FFA8A7"/>
<path d="M133.037 120.681L133.095 129.411C133.656 129.426 134.213 129.326 134.734 129.117C135.255 128.908 135.727 128.596 136.122 128.198C136.517 127.8 136.827 127.325 137.032 126.803C137.237 126.281 137.333 125.723 137.314 125.162C137.304 124.012 136.856 122.909 136.061 122.076C135.267 121.244 134.186 120.745 133.037 120.681Z" fill="#263238"/>
<path d="M164.288 121.923C164.292 122.333 164.417 122.733 164.646 123.073C164.875 123.413 165.199 123.678 165.578 123.836C165.957 123.994 166.373 124.037 166.776 123.96C167.179 123.883 167.55 123.689 167.844 123.403C168.138 123.117 168.342 122.751 168.43 122.35C168.517 121.95 168.486 121.532 168.338 121.149C168.191 120.767 167.935 120.435 167.601 120.197C167.267 119.959 166.871 119.823 166.461 119.808C166.179 119.802 165.898 119.852 165.635 119.955C165.373 120.058 165.133 120.213 164.931 120.41C164.729 120.606 164.568 120.842 164.457 121.101C164.347 121.361 164.289 121.64 164.288 121.923Z" fill="black"/>
<path d="M147.557 122.854C147.54 123.155 147.582 123.456 147.682 123.74C147.782 124.024 147.936 124.286 148.137 124.511C148.338 124.735 148.581 124.917 148.853 125.048C149.125 125.178 149.419 125.253 149.72 125.269C150.025 125.272 150.328 125.214 150.611 125.099C150.894 124.985 151.151 124.815 151.368 124.601C151.585 124.386 151.758 124.131 151.876 123.849C151.995 123.568 152.056 123.266 152.058 122.961C152.067 122.665 152.018 122.371 151.914 122.094C151.81 121.817 151.652 121.564 151.45 121.348C151.248 121.133 151.005 120.959 150.736 120.837C150.466 120.715 150.176 120.647 149.88 120.638C149.585 120.628 149.29 120.677 149.013 120.781C148.737 120.885 148.483 121.043 148.268 121.245C148.052 121.448 147.878 121.69 147.756 121.96C147.634 122.229 147.567 122.52 147.557 122.815V122.854Z" fill="black"/>
<path d="M169.836 118.014L164.434 115.87C164.559 115.507 164.757 115.173 165.017 114.89C165.277 114.607 165.593 114.38 165.944 114.224C166.295 114.069 166.675 113.987 167.06 113.985C167.444 113.983 167.825 114.06 168.178 114.212C168.89 114.511 169.459 115.073 169.768 115.781C170.077 116.489 170.101 117.288 169.836 118.014Z" fill="black"/>
<path d="M159.167 120.216L158.896 133.155L165.85 131.612L159.167 120.216Z" fill="#F28F8F"/>
<path d="M150.971 135.793L157.761 137.898C157.662 138.36 157.469 138.798 157.194 139.183C156.919 139.568 156.568 139.893 156.162 140.137C155.757 140.381 155.305 140.538 154.836 140.6C154.367 140.662 153.89 140.627 153.435 140.497C152.503 140.173 151.73 139.506 151.272 138.632C150.814 137.759 150.707 136.743 150.971 135.793Z" fill="#B16668"/>
<path d="M154.725 140.613C154.717 139.669 154.337 138.766 153.666 138.102C152.996 137.437 152.09 137.063 151.146 137.064C151.052 137.059 150.958 137.059 150.865 137.064C150.899 137.821 151.161 138.551 151.616 139.158C152.071 139.765 152.698 140.222 153.415 140.468C153.837 140.607 154.283 140.657 154.725 140.613Z" fill="#F28F8F"/>
<path d="M153.085 148.179C148.187 147.597 138.09 144.784 136.451 140.681C137.108 142.741 138.368 144.556 140.069 145.89C143.114 148.509 153.085 151.234 153.085 151.234V148.179Z" fill="#F28F8F"/>
<path d="M132.794 149.537C131.514 149.275 130.379 149.838 129.332 151.603C128.284 153.368 125.985 157.132 125.985 157.132C125.985 157.132 124.792 169.537 125.985 172.651C127.014 175.328 138.352 185.366 138.352 185.366C138.352 185.366 135.394 196.511 135.287 200.168C135.18 203.824 142.077 217.704 142.911 224.804C142.911 224.804 145.365 202.496 144.308 194.455C142.484 180.517 135.947 162.515 132.862 156.792L132.794 149.537Z" fill="#EBEBEB"/>
<path d="M139.73 195.706C138.973 193.905 138.081 192.164 137.063 190.497C135.452 187.83 133.464 185.269 131.67 184.61C131.398 184.502 131.109 184.443 130.816 184.435H130.719C130.424 184.452 130.134 184.524 129.866 184.649C128.449 185.279 126.956 187.209 125.743 189.43C124.502 191.661 123.478 194.006 122.688 196.433C122.222 197.937 122.426 201.128 122.979 204.775C124.065 211.855 126.48 220.701 127.829 222.447C128.817 223.667 129.984 224.73 131.291 225.6C130.491 226.129 129.628 226.556 128.721 226.87C128.208 227.057 127.666 227.152 127.121 227.151V228.422H127.276C127.852 228.413 128.424 228.318 128.973 228.141C130.245 227.728 131.445 227.123 132.533 226.346C133.681 227.03 134.928 227.534 136.228 227.84C136.841 227.987 137.474 228.026 138.1 227.956L137.945 226.696C137.402 226.741 136.855 226.699 136.325 226.569C135.392 226.326 134.493 225.968 133.648 225.503C134.879 224.523 135.958 223.366 136.849 222.069C137.606 220.915 138.537 216.938 139.235 212.37C139.662 209.644 140.011 206.715 140.205 204.047C140.419 200.323 140.322 197.132 139.73 195.706ZM135.724 221.371C134.814 222.683 133.697 223.84 132.417 224.794C131.056 223.954 129.844 222.896 128.828 221.662C127.567 220.022 125.239 211.39 124.191 204.581C123.658 201.138 123.464 198.16 123.891 196.821C124.682 194.365 125.729 191.998 127.014 189.76C128.352 187.452 129.778 185.754 130.768 185.716C131.941 185.716 133.842 187.84 135.617 190.565C135.976 191.099 136.316 191.681 136.645 192.263C137.369 193.516 138.017 194.812 138.585 196.142C139.119 197.462 139.177 200.439 138.935 203.902C138.799 205.842 138.585 207.869 138.314 209.886C137.577 215.153 136.539 220.09 135.724 221.341V221.371Z" fill="#455A64"/>
<path d="M139.836 227.21C139.851 227.58 139.756 227.946 139.563 228.262C139.37 228.579 139.087 228.83 138.751 228.986C138.414 229.141 138.039 229.193 137.673 229.135C137.307 229.077 136.967 228.912 136.695 228.66C136.423 228.409 136.231 228.082 136.145 227.722C136.059 227.361 136.082 226.983 136.21 226.636C136.339 226.288 136.568 225.987 136.868 225.77C137.168 225.552 137.526 225.429 137.896 225.415C138.391 225.397 138.873 225.575 139.237 225.912C139.601 226.248 139.816 226.715 139.836 227.21Z" fill="#263238"/>
<path d="M128.963 227.714C128.98 228.085 128.887 228.452 128.695 228.769C128.503 229.087 128.221 229.34 127.885 229.497C127.549 229.653 127.174 229.707 126.807 229.65C126.44 229.593 126.099 229.429 125.826 229.178C125.553 228.927 125.361 228.6 125.274 228.239C125.187 227.879 125.209 227.501 125.337 227.153C125.465 226.805 125.694 226.502 125.994 226.285C126.295 226.067 126.653 225.943 127.024 225.929C127.268 225.919 127.512 225.957 127.742 226.041C127.972 226.125 128.183 226.254 128.364 226.42C128.544 226.585 128.689 226.785 128.792 227.007C128.895 227.229 128.953 227.469 128.963 227.714Z" fill="#263238"/>
<path d="M140.05 204.028L138.973 203.95C138.863 203.94 138.762 203.889 138.689 203.805C138.617 203.722 138.58 203.614 138.585 203.504C138.808 199.944 138.692 197.326 138.255 196.278C136.374 191.681 132.436 185.919 130.777 185.987C129.118 186.055 125.685 192.136 124.191 196.87C123.852 197.956 123.958 200.575 124.472 204.106C124.489 204.213 124.463 204.324 124.4 204.413C124.336 204.501 124.24 204.562 124.133 204.581L123.066 204.746C122.954 204.759 122.841 204.728 122.752 204.659C122.663 204.59 122.605 204.489 122.591 204.377C121.999 200.42 121.931 197.704 122.377 196.298C123.173 193.756 126.926 184.241 130.699 184.086C134.472 183.931 139.021 193.087 140.03 195.56C140.583 196.918 140.748 199.634 140.496 203.621C140.488 203.733 140.438 203.838 140.355 203.914C140.271 203.99 140.162 204.031 140.05 204.028Z" fill="#00FFEA"/>
<path d="M116.791 158.761C109.691 158.645 106.412 161.041 101.912 167.064C98.3423 171.846 84.4528 197.685 79.8456 205.231L54.7629 191.826C49.6901 188.325 48.0509 182.796 44.8404 179.566C41.6299 176.337 38.3031 175.687 34.7725 173.019C31.2419 170.352 29.8064 168.276 28.7879 170.769C27.7695 173.262 31.6978 177.297 32.4446 178.296C33.1915 179.295 37.1294 181.516 32.0178 181.594C26.9063 181.671 16.7898 176.375 14.3261 175.434C11.8625 174.494 12.008 177.433 13.2204 179.314C14.4328 181.196 14.3746 186.511 16.4212 189.586C18.5842 192.845 19.7675 194.261 24.5881 196.375C29.0692 198.315 38.4776 199.091 43.24 202.069C48.0024 205.047 59.8066 215.541 66.9842 221.836C76.1113 229.838 82.4062 231.303 87.4887 226.502C92.4257 221.332 97.4306 215.27 99.8748 212.195C106.461 203.902 116.878 185.037 116.878 185.037C116.878 185.037 121.388 175.337 116.791 158.761Z" fill="#FFA8A7"/>
<path d="M117.77 158.053C107.314 158.053 104.191 161.836 98.8368 170.575C93.4828 179.314 79.7484 204.329 79.7484 204.329L59.9713 193.97C59.9713 193.97 56.4117 201.807 52.6289 209.886C52.6289 209.886 63.822 219.586 69.1179 224.174C74.4137 228.761 81.4361 232.36 87.9444 226.744C94.8989 220.75 117.45 189.605 117.45 189.605C122.804 179.886 121.611 165.153 117.77 158.053Z" fill="#F0F0F0"/>
<path d="M79.7479 204.329C82.9778 208.131 86.8867 212.408 86.7121 215.774C86.7121 215.774 88.9236 212.786 81.1543 201.778L79.7479 204.329Z" fill="#5049C2"/>
<path d="M42.3379 111.05L34.2486 115.686L34.2777 106.394L28.2252 102.902L14.1126 111.05V127.345L0 135.492V151.787L6.05242 155.279L14.1126 150.623V159.945L20.165 163.436L34.2777 155.279V138.984L48.3903 130.837V114.542L42.3379 111.05Z" fill="#00FFEA"/>
<path d="M6.05261 138.984V155.279L20.1652 147.132V163.436L34.2778 155.279V138.984L48.3905 130.837V114.542L34.2294 122.718L34.2778 106.394L20.1652 114.542V130.837L6.05261 138.984Z" fill="#00FFEA"/>
<g opacity="0.2">
<path d="M6.05242 155.279L0 151.787V135.492L6.05242 138.984V155.279Z" fill="black"/>
<path d="M20.1653 114.542L14.1129 111.05V127.345L20.1653 130.837V114.542Z" fill="black"/>
<path d="M20.1653 163.436L14.1129 159.944V150.623L20.1653 147.132V163.436Z" fill="black"/>
</g>
<g opacity="0.5">
<path d="M20.165 130.836L14.1126 127.345L0 135.492L6.05242 138.984L20.165 130.836Z" fill="white"/>
<path d="M34.2779 106.394L28.2255 102.902L14.1129 111.05L20.1653 114.542L34.2779 106.394Z" fill="white"/>
<path d="M48.3905 114.542L42.3381 111.05L34.2488 115.686L34.2294 122.718L48.3905 114.542Z" fill="white"/>
</g>
<path d="M274.464 78.3436C274.207 78.1216 273.932 77.9236 273.639 77.752C272.611 77.1409 267.955 74.4639 267.713 74.3184C265.249 72.7471 261.35 73.0963 257.878 74.8519C252.902 77.364 248.76 82.6696 245.598 91.5057C245.598 91.5057 242.397 89.207 241.36 88.5959C238.789 87.1895 235.782 87.8684 232.397 90.0702C228.586 92.5532 225.986 95.7735 223.61 100.643V100.73C221.551 104.864 220.425 109.401 220.312 114.018C220.312 124.231 224.492 129.101 229.934 132.757C231.486 133.805 235.588 136.007 235.996 136.278C239.28 138.446 242.912 140.034 246.733 140.973L252.097 142.224L257.461 134.784C261.366 129.299 264.951 123.593 268.198 117.694C273.639 107.752 277.897 98.014 277.82 87.8393C277.742 83.4843 276.491 80.2835 274.464 78.3436Z" fill="#00FFEA"/>
<path opacity="0.3" d="M274.464 78.3436C274.207 78.1216 273.932 77.9236 273.639 77.752C272.611 77.1409 267.955 74.4639 267.713 74.3184C265.249 72.7471 261.35 73.0963 257.878 74.8519C252.902 77.364 248.76 82.6696 245.598 91.5057C245.598 91.5057 242.397 89.207 241.36 88.5959C238.789 87.1895 235.782 87.8684 232.397 90.0702C228.586 92.5532 225.986 95.7735 223.61 100.643V100.73C221.551 104.864 220.425 109.401 220.312 114.018C220.312 124.231 224.492 129.101 229.934 132.757C231.486 133.805 235.588 136.007 235.996 136.278C239.28 138.446 242.912 140.034 246.733 140.973L252.097 142.224L257.461 134.784C261.366 129.299 264.951 123.593 268.198 117.694C273.639 107.752 277.897 98.014 277.82 87.8393C277.742 83.4843 276.491 80.2835 274.464 78.3436Z" fill="black"/>
<path d="M274.464 78.3436C274.208 78.1216 273.932 77.9236 273.639 77.752C272.611 77.1409 267.956 74.4639 267.713 74.3184C265.249 72.7471 261.35 73.0963 257.878 74.8519C252.902 77.364 248.76 82.6696 245.598 91.5057C245.598 91.5057 242.398 89.207 241.36 88.5959C238.789 87.1895 235.783 87.8684 232.398 90.0702C228.586 92.5532 225.986 95.7735 223.61 100.643V100.73C223.503 100.943 223.416 101.157 223.319 101.37L264.056 124.862C265.502 122.515 266.908 120.138 268.247 117.694C273.688 107.752 277.946 98.014 277.868 87.8393C277.742 83.4843 276.491 80.2835 274.464 78.3436Z" fill="#00FFEA"/>
<path opacity="0.15" d="M274.464 78.3436C274.208 78.1216 273.932 77.9236 273.639 77.752C272.611 77.1409 267.956 74.4639 267.713 74.3184C265.249 72.7471 261.35 73.0963 257.878 74.8519C252.902 77.364 248.76 82.6696 245.598 91.5057C245.598 91.5057 242.398 89.207 241.36 88.5959C238.789 87.1895 235.783 87.8684 232.398 90.0702C228.586 92.5532 225.986 95.7735 223.61 100.643V100.73C223.503 100.943 223.416 101.157 223.319 101.37L264.056 124.862C265.502 122.515 266.908 120.138 268.247 117.694C273.688 107.752 277.946 98.014 277.868 87.8393C277.742 83.4843 276.491 80.2835 274.464 78.3436Z" fill="black"/>
<path d="M245.569 91.4667L251.02 98.5763L259.808 88.1786L249.876 82.4462C248.107 85.2822 246.662 88.308 245.569 91.4667Z" fill="#00FFEA"/>
<path opacity="0.3" d="M245.569 91.4667L251.02 98.5763L259.808 88.1786L249.876 82.4462C248.107 85.2822 246.662 88.308 245.569 91.4667Z" fill="black"/>
<path d="M274.464 78.3436C272.087 76.2194 267.761 76.4037 263.94 78.3436C258.731 80.9818 254.425 86.6754 251.205 96.3166C247.984 90.3999 243.678 90.2156 238.469 93.6007C234.648 96.0838 232.048 99.304 229.682 104.173L229.633 104.26C227.581 108.4 226.459 112.939 226.345 117.558C226.345 127.772 230.535 132.641 235.967 136.297C239.251 138.466 242.882 140.054 246.704 140.992L252.068 142.243L257.432 134.804C261.337 129.318 264.922 123.612 268.169 117.713C273.61 107.772 277.868 98.0334 277.791 87.8587C277.742 83.4843 276.491 80.2835 274.464 78.3436Z" fill="#00FFEA"/>
<g opacity="0.07">
<path d="M269.886 77.3737C271.381 77.3053 272.851 77.7769 274.027 78.7025C274.048 78.7443 274.078 78.7809 274.115 78.8092C276.113 80.6327 277.228 83.8723 277.238 87.9072C277.238 98.5281 272.388 108.839 267.684 117.51C264.461 123.389 260.898 129.076 257.015 134.542L251.864 141.71L246.85 140.536C243.085 139.611 239.506 138.05 236.268 135.919C231.418 132.621 226.84 128.16 226.879 117.607C226.982 113.069 228.07 108.607 230.07 104.532V104.445C232.456 99.5465 235.026 96.4524 238.673 94.0857C240.367 92.8293 242.388 92.0884 244.493 91.9519C246.956 91.9519 248.983 93.4747 250.691 96.6076C250.733 96.6915 250.798 96.7616 250.879 96.8097C250.96 96.8578 251.052 96.8819 251.146 96.8792H251.195C251.295 96.8699 251.39 96.832 251.469 96.7701C251.548 96.7082 251.608 96.6248 251.641 96.53C254.716 87.3253 258.799 81.5444 264.114 78.8577C265.889 77.9281 267.854 77.4203 269.857 77.3737M269.857 76.8596C267.773 76.9026 265.728 77.4271 263.882 78.3921C258.673 81.0304 254.367 86.7239 251.146 96.3651C249.284 92.9315 247.053 91.4281 244.493 91.4281C242.295 91.5726 240.185 92.3434 238.411 93.6493C234.59 96.1323 231.99 99.3525 229.623 104.222L229.575 104.309C227.523 108.449 226.401 112.987 226.287 117.607C226.287 127.82 230.477 132.689 235.909 136.346C239.192 138.514 242.824 140.102 246.646 141.04L252.01 142.292L257.373 134.852C261.278 129.367 264.863 123.661 268.111 117.762C273.552 107.82 277.81 98.0819 277.732 87.9072C277.732 83.5328 276.462 80.2835 274.435 78.4212C273.154 77.3784 271.535 76.8432 269.886 76.9178L269.857 76.8596Z" fill="black"/>
</g>
<path d="M273.872 105.841L263.435 111.874L259.556 97.7617C259.501 97.5483 259.375 97.36 259.198 97.2277C259.022 97.0955 258.806 97.0273 258.586 97.0342C258.359 97.0297 258.138 97.1048 257.96 97.2466C257.783 97.3884 257.661 97.5878 257.616 97.8102L251.573 125.415L246.491 111.506C246.48 111.248 246.368 111.006 246.179 110.831C245.99 110.657 245.739 110.564 245.482 110.575C245.225 110.585 244.982 110.697 244.807 110.886C244.633 111.075 244.54 111.326 244.551 111.583L241.117 123.775L229.633 130.41C230.011 130.959 230.419 131.487 230.855 131.991L242.494 125.289C242.72 125.158 242.886 124.946 242.96 124.697L245.666 115.075L250.875 129.294C250.944 129.493 251.076 129.664 251.251 129.782C251.426 129.899 251.634 129.956 251.845 129.944C252.06 129.933 252.265 129.851 252.429 129.711C252.592 129.57 252.704 129.379 252.747 129.168L258.663 102.185L261.787 113.64C261.824 113.787 261.895 113.924 261.994 114.038C262.094 114.153 262.219 114.243 262.36 114.301C262.5 114.358 262.653 114.382 262.804 114.37C262.955 114.358 263.102 114.31 263.232 114.231L272.504 108.887C273.038 107.868 273.465 106.86 273.872 105.841Z" fill="white"/>
<path d="M317.675 365.241C317.277 366.556 317.244 367.954 317.578 369.286C317.966 370.101 320.39 372.778 325.337 373.748C330.284 374.718 337.083 373.748 340.012 373.573C342.941 373.399 352.137 374.543 355.056 374.912C359.654 375.533 363.184 374.524 364.901 372.865C365.179 372.532 365.384 372.143 365.502 371.726C365.621 371.308 365.651 370.87 365.59 370.44C365.58 369.334 365.416 368.234 365.105 367.172L317.675 365.241Z" fill="#263238"/>
<path d="M364.348 362.361C364.435 362.739 364.523 363.127 364.6 363.515C365.048 365.467 365.189 367.476 365.017 369.471C364.426 370.926 362.806 371.731 361.496 372.138C358.034 373.244 355.405 373.108 351.574 372.342C347.721 371.78 343.828 371.54 339.935 371.624C336.918 371.828 332.767 372.41 329.75 372.128C327.185 372.021 324.654 371.504 322.253 370.596C320.245 369.742 318.189 368.656 317.694 366.561C317.102 362.196 318.936 360.276 321.001 359.053C323.067 357.831 326.006 357.928 329.149 357.725C331.991 357.531 334.067 357.531 336.598 357.337C338.787 357.23 340.962 356.928 343.097 356.435C345.037 355.833 346.976 353.399 347.772 353.311C347.772 353.311 360.43 353.214 361.632 353.311C363.029 353.428 363.456 357.754 363.63 358.695C363.766 359.432 363.795 360.227 363.989 360.935C364.115 361.41 364.232 361.886 364.348 362.361Z" fill="#37474F"/>
<path d="M325.347 371.546C324.949 368.403 324.377 361.594 330.197 357.656H330.924C328.31 356.9 325.536 356.9 322.922 357.656C318.295 358.888 316.239 362.632 317.393 366.589C317.413 366.551 318.441 370.382 325.347 371.546Z" fill="#FAFAFA"/>
<path d="M342.234 356.658C340.362 358.316 339.712 362.089 339.712 362.089C339.469 363.505 336.909 363.719 337.151 362.351C337.542 360.471 338.296 358.685 339.372 357.094C340.25 356.631 341.258 356.477 342.234 356.658Z" fill="#FAFAFA"/>
<path d="M336.986 357.307C335.574 358.689 334.652 360.494 334.358 362.448C334.096 363.806 331.962 363.786 332.117 362.448C332.117 362.448 332.359 359.101 334.358 357.54C334.744 357.292 335.186 357.142 335.643 357.101C336.101 357.06 336.562 357.131 336.986 357.307Z" fill="#FAFAFA"/>
<path d="M362.02 344.107C362.02 344.107 361.681 352.244 361.235 354.912C360.963 356.503 358.878 358.171 353.688 357.996C350.041 357.87 347.17 358.171 347.316 355.319L347.636 347.007L362.02 344.107Z" fill="#FFA8A7"/>
<path d="M370.158 324.883C369.974 327.104 369.673 329.112 370.585 331.556C371.885 335.067 374.639 336.677 376.259 338.054C377.963 339.743 379.536 341.558 380.963 343.486C382.554 345.426 382.971 346.58 385.357 348.695C386.546 349.61 387.952 350.201 389.438 350.41C390.924 350.619 392.439 350.439 393.834 349.888C395.9 349.005 396.618 348.307 396.492 345.135C396.366 341.963 386.259 340.887 386.259 340.887L370.158 324.883Z" fill="#263238"/>
<path d="M395.182 335.688C396.046 335.998 396.259 337.56 396.395 340.663C396.492 343.011 397.53 346.483 394.125 347.928C391.38 349.121 386.996 348.326 385.144 346.114C382.835 343.35 381.264 340.916 377.966 337.55C375.056 334.64 372.146 333.67 370.856 327.802C370.032 324.039 370.682 322.487 373.339 321.41C376.996 319.926 382.728 324.766 385.599 325.532C388.063 326.182 394.319 335.377 395.182 335.688Z" fill="#37474F"/>
<path d="M385.599 325.532L385.114 325.367C383.479 325.428 381.888 325.916 380.5 326.782C379.111 327.648 377.974 328.862 377.2 330.304C376.715 331.323 378.17 332.118 379.14 331.323C381.177 327.443 385.367 326.609 387.045 326.424C386.632 326.028 386.139 325.724 385.599 325.532Z" fill="#FAFAFA"/>
<path d="M387.956 327.297C386.421 327.441 384.946 327.964 383.662 328.819C382.379 329.674 381.328 330.834 380.604 332.195C380.119 333.165 381.623 334.009 382.544 333.165C383.236 331.952 384.185 330.904 385.324 330.094C386.464 329.285 387.766 328.735 389.14 328.481C388.723 328.093 388.335 327.676 387.956 327.297Z" fill="#FAFAFA"/>
<path d="M395.677 330.081L395.183 336.628C395.183 336.628 391.021 339.664 385.056 336.88C384.882 336.521 384.377 330.663 384.377 330.663L395.677 330.081Z" fill="#FFA8A7"/>
<path d="M372.534 332.118C372.534 332.118 372.816 325.164 382.699 324.204L383.272 324.504C382.147 322.76 380.421 321.49 378.422 320.935C375.143 320.091 372.544 320.935 370.818 323.011C369.091 325.086 370.827 330.77 372.534 332.118Z" fill="#FAFAFA"/>
<path d="M398.558 286.473C397.142 275.018 396.618 268.636 396.618 268.636C396.618 268.636 396.337 252.506 397.316 237.598C397.743 231.06 397.966 223.825 398.102 217.229C398.283 209.966 397.704 202.703 396.376 195.56C396.376 195.56 345.657 185.473 345.027 204.077C344.261 226.385 344.358 264.513 343.494 279.072C343.019 287.249 343.844 294.029 344.358 309.916C344.775 323.088 344.649 355.503 344.649 355.503C350.236 363.176 363.427 357.327 363.427 357.327C363.427 357.327 367.5 311.808 368.102 302.399C368.742 292.283 367.675 287.162 367.675 287.162L372.903 240.032C372.903 240.032 373.301 255.154 373.747 263.311C374.193 271.468 375.386 276.482 377.51 291.701C379.353 304.911 383.272 338.626 383.272 338.626C390.061 342.642 396.618 338.626 396.618 338.626C396.618 338.626 399.974 297.928 398.558 286.473Z" fill="#455A64"/>
<path d="M391.633 221.38C391.633 221.38 385.279 229.489 377.083 232.971C377.083 232.971 373.534 261.477 373.563 260.915L372.641 232.224C372.641 232.224 384.843 226.831 391.633 221.38Z" fill="#37474F"/>
<path d="M391.458 129.75C396.919 128.528 403.097 132.427 407.21 141.128C411.186 149.45 422.05 170.468 422.312 176.356C422.593 182.457 395.454 200.963 396.123 200.604C396.337 200.498 391.438 186.608 391.438 186.608L404.62 175.696L397.452 160.934L391.458 129.75Z" fill="#FFA8A7"/>
<path d="M388.587 128.441C393.184 127.878 401.516 129.614 404.698 135.143C409.314 143.145 413.524 152.398 418.888 164.357C418.888 164.357 414.911 172.971 403.466 173.785L396.608 161.758L388.587 128.441Z" fill="#37474F"/>
<path d="M365.444 121.234L366.24 138.208L383.058 137.306L382.544 117.587L365.444 121.234Z" fill="#FFA8A7"/>
<path d="M399.576 136.986C398.16 132.359 393.272 128.548 387.093 128.363C385.716 128.363 382.826 128.363 382.826 128.363C382.127 131.225 373.369 132.243 365.881 130.526C363.621 131.128 354.241 133.436 352.302 134.018C346.918 135.803 345.26 141.292 344.426 158.848C344.426 158.848 344.59 193.456 344.426 209.974C353.892 214.969 368.519 214.348 378.926 213.291C395.28 211.642 397.714 205.716 397.714 205.716C397.025 196.084 397.443 192.457 397.714 182.951C397.918 175.803 399.974 168.247 400.624 160.148C401.584 148.111 400.537 140.167 399.576 136.986Z" fill="#00FFEA"/>
<path d="M362.816 124.454C358.936 124.183 354.086 127.277 352.835 133.902L355.997 133.058L362.816 124.454Z" fill="#00FFEA"/>
<path opacity="0.3" d="M362.816 124.454C358.936 124.183 354.086 127.277 352.835 133.902L355.997 133.058L362.816 124.454Z" fill="black"/>
<path d="M365.658 125.87C368.567 126.84 377.054 126.705 379.896 125.87C382.738 125.036 382.709 123.775 382.709 123.775V122.35C384.348 122.345 385.949 122.843 387.297 123.775C389.111 125.25 392.234 130.565 392.147 133.116C392.059 135.667 386.608 142.398 376.094 142.233C365.58 142.068 359.673 138.179 357.859 135.618L356.036 133.048C356.036 133.048 358.529 127.927 360.982 125.773C362.241 124.554 363.854 123.766 365.59 123.523L365.658 125.87Z" fill="#00FFEA"/>
<path opacity="0.2" d="M365.658 125.87C368.567 126.84 377.054 126.705 379.896 125.87C382.738 125.036 382.709 123.775 382.709 123.775V122.35C384.348 122.345 385.949 122.843 387.297 123.775C389.111 125.25 392.234 130.565 392.147 133.116C392.059 135.667 386.608 142.398 376.094 142.233C365.58 142.068 359.673 138.179 357.859 135.618L356.036 133.048C356.036 133.048 358.529 127.927 360.982 125.773C362.241 124.554 363.854 123.766 365.59 123.523L365.658 125.87Z" fill="black"/>
<path d="M354.125 100.419C354.125 100.419 350.119 106.501 350.575 107.092C351.031 107.684 353.979 108.237 353.979 108.237L354.125 100.419Z" fill="#F28F8F"/>
<path d="M365.26 83.581C357.151 85.2978 353.912 87.6741 353.407 101.535C352.922 115.017 354.62 119.459 356.385 121.273C357.578 122.495 364.222 122.718 367.568 121.787C371.758 120.633 381.235 117.277 385.667 110.506C390.886 102.534 392.253 91.7285 386.637 87.2959C378.81 81.0591 368.567 82.8826 365.26 83.581Z" fill="#FFA8A7"/>
<path d="M356.385 121.263C357.355 122.233 362.001 122.601 365.493 122.175L365.444 120.167C362.551 121.234 359.449 121.61 356.385 121.263Z" fill="#F28F8F"/>
<path d="M352.331 88.7896C354.351 90.2378 356.857 90.8399 359.314 90.4676C359.266 91.5543 359.557 92.6291 360.148 93.5423C360.971 94.7874 362.219 95.6907 363.659 96.0835C362.772 97.8236 362.3 99.7461 362.282 101.699C362.228 102.313 362.359 102.928 362.66 103.465C362.754 103.66 362.9 103.825 363.083 103.94C363.266 104.055 363.477 104.116 363.693 104.116C363.91 104.116 364.121 104.055 364.304 103.94C364.487 103.825 364.633 103.66 364.726 103.465C365.183 102.433 365.755 101.457 366.433 100.555C367.313 99.5028 368.549 98.8121 369.906 98.6151C374.998 98.0622 375.638 104.726 373.601 107.49C370.265 112.01 367.433 108.945 367.433 108.945C367.303 111.064 367.624 113.186 368.377 115.171C369.129 117.156 370.295 118.958 371.797 120.458C375.417 121.525 379.253 121.622 382.922 120.739C387.442 114.522 390.284 111.496 392.699 106.132C397.801 94.7741 395.338 87.6451 391.39 84.6383C390.614 79.4103 386.492 77.063 381.788 75.9864C374.765 74.3666 368.209 78.5373 361.244 76.9563C360.101 76.7171 358.972 76.4193 357.859 76.064C357.431 75.8631 356.942 75.8319 356.492 75.9767C356.242 76.1425 356.046 76.3779 355.929 76.6538C355.812 76.9296 355.778 77.2338 355.832 77.5286C355.919 78.8671 357.277 80.3511 357.966 81.0689C356.445 81.208 354.912 81.1198 353.417 80.807C352.898 80.7097 352.365 80.7097 351.846 80.807C351.276 81.0391 350.794 81.4457 350.47 81.9685C350.146 82.4913 349.996 83.1034 350.042 83.7168C350.047 84.6754 350.254 85.6221 350.648 86.4959C351.043 87.3696 351.616 88.151 352.331 88.7896Z" fill="#263238"/>
<path d="M391.516 86.326L396.366 83.4162C395.98 82.7731 395.354 82.3096 394.627 82.1277C393.899 81.9458 393.129 82.0604 392.486 82.4463C391.843 82.8321 391.379 83.4577 391.198 84.1853C391.016 84.9129 391.13 85.6829 391.516 86.326Z" fill="#263238"/>
<path d="M328.315 162.728C327.216 158.409 326.155 154.083 325.133 149.75C324.163 145.764 322.67 141.147 324.037 137.073C324.815 135.294 325.791 133.608 326.947 132.049C327.948 130.405 328.792 128.671 329.469 126.869C329.808 125.996 330.119 125.104 330.439 124.221C330.759 123.339 331.215 122.834 331.002 121.991C330.293 119.226 326.724 122.854 325.997 123.989C325.674 124.584 325.297 125.149 324.872 125.676C324.406 126.171 323.271 126.792 322.728 126.064C322.547 125.772 322.446 125.438 322.437 125.094C322.068 120.836 323.601 117.024 324.872 113.048C325.072 112.526 325.193 111.976 325.23 111.418C325.253 111.14 325.216 110.859 325.121 110.596C325.025 110.334 324.874 110.094 324.678 109.895C324.361 109.653 323.987 109.498 323.592 109.447C323.196 109.396 322.795 109.45 322.427 109.604C321.709 109.847 321.089 110.303 320.371 110.526C319.653 110.749 319.12 110.749 318.489 110.914C316.994 111.247 315.553 111.793 314.212 112.534C311.884 113.901 310.856 115.899 310.245 118.441C309.511 121.562 309.262 124.778 309.508 127.975C309.673 130.099 310.051 132.194 310.313 134.289L311.186 141.302C311.777 145.977 311.952 169.333 312.757 173.979C313.562 178.625 315.114 181.739 318.79 183.281C324.125 185.454 332.747 175.638 337.646 170.555L328.315 162.728Z" fill="#FFA8A7"/>
<path d="M326.365 160.08C322.932 162.651 318.654 166.928 317.791 171.215C317.791 171.215 316.937 163.504 326.365 156.666V160.08Z" fill="#F28F8F"/>
<path d="M352.03 134.124C348.732 134.435 343.301 134.551 337.772 140.497C331.361 147.442 321.477 161.137 321.477 161.137C321.477 161.137 322.767 172.039 333.262 175.948C333.262 175.948 348.519 161.399 351.797 155.133C355.076 148.867 355.813 138.479 352.03 134.124Z" fill="#37474F"/>
<path d="M347.636 111.079L343.465 108.838L345.861 106.792L337.199 102.737L340.982 100.545L331.651 95.5791L337.199 100.477L332.689 102.737L342.864 107.141L340.352 109.653L347.636 111.079Z" fill="#00FFEA"/>
<path d="M349.76 105.579L347.044 102.98L348.528 101.884L346.142 99.0516L348.431 98.2757L347.636 94.6869L349.246 98.5569L347.636 99.2553L350.216 102.088L348.47 103.329L349.76 105.579Z" fill="#00FFEA"/>
<path d="M348.179 115.181L343.058 119.178L341.167 116.394L336.686 118.828L334.852 115.385L327.917 117.16L335.939 113.319L338.237 116.491L341.962 114.493L343.514 117.16L348.179 115.181Z" fill="#00FFEA"/>
<path d="M312.573 186.695C312.729 186.566 312.929 186.503 313.131 186.521C313.333 186.54 313.519 186.637 313.649 186.792C314.641 187.906 315.929 188.714 317.363 189.123C318.798 189.532 320.318 189.524 321.748 189.101C321.846 189.066 321.949 189.052 322.053 189.058C322.156 189.065 322.257 189.093 322.349 189.139C322.441 189.186 322.523 189.251 322.59 189.33C322.656 189.409 322.706 189.501 322.736 189.6C322.766 189.699 322.776 189.803 322.765 189.906C322.754 190.008 322.722 190.108 322.671 190.198C322.621 190.288 322.552 190.367 322.47 190.43C322.389 190.493 322.295 190.539 322.194 190.565C320.48 191.073 318.655 191.079 316.937 190.584C315.218 190.089 313.677 189.114 312.495 187.772C312.429 187.696 312.378 187.608 312.346 187.513C312.314 187.418 312.301 187.317 312.308 187.217C312.315 187.117 312.342 187.019 312.388 186.929C312.433 186.84 312.496 186.76 312.573 186.695Z" fill="#5049C2"/>
<path d="M313.349 191.826C313.485 191.713 313.656 191.65 313.834 191.65C314.011 191.65 314.183 191.713 314.319 191.826C315.108 192.397 316.013 192.788 316.97 192.973C317.927 193.157 318.912 193.13 319.857 192.893C320.058 192.856 320.265 192.899 320.433 193.014C320.602 193.128 320.719 193.304 320.759 193.504C320.779 193.602 320.779 193.703 320.759 193.801C320.74 193.9 320.701 193.993 320.645 194.076C320.589 194.159 320.517 194.23 320.433 194.285C320.35 194.34 320.256 194.378 320.158 194.396C318.989 194.668 317.775 194.679 316.602 194.429C315.429 194.179 314.325 193.675 313.368 192.951C313.292 192.886 313.229 192.807 313.183 192.717C313.138 192.627 313.111 192.529 313.104 192.429C313.096 192.329 313.109 192.228 313.141 192.133C313.173 192.038 313.224 191.95 313.291 191.875C313.308 191.856 313.327 191.84 313.349 191.826Z" fill="#5049C2"/>
<path d="M408.587 133.038C408.498 133.085 408.4 133.113 408.299 133.121C408.198 133.129 408.097 133.117 408.002 133.085C407.906 133.053 407.817 133.003 407.741 132.937C407.665 132.87 407.603 132.789 407.559 132.699C406.851 131.386 405.785 130.301 404.486 129.57C403.186 128.839 401.706 128.491 400.217 128.567C400.116 128.573 400.015 128.558 399.92 128.525C399.825 128.492 399.737 128.44 399.662 128.373C399.51 128.238 399.418 128.047 399.407 127.844C399.395 127.641 399.465 127.441 399.6 127.29C399.736 127.138 399.926 127.046 400.129 127.034C401.917 126.941 403.694 127.359 405.253 128.241C406.811 129.122 408.086 130.43 408.927 132.01C409.015 132.192 409.029 132.401 408.966 132.593C408.902 132.785 408.767 132.945 408.587 133.038Z" fill="#5049C2"/>
<path d="M409.014 127.897C408.851 127.983 408.663 128.006 408.485 127.963C408.307 127.921 408.15 127.814 408.044 127.665C407.418 126.933 406.641 126.345 405.768 125.94C404.894 125.535 403.944 125.323 402.981 125.317C402.88 125.314 402.781 125.29 402.69 125.248C402.598 125.206 402.516 125.146 402.447 125.072C402.379 124.998 402.326 124.912 402.291 124.817C402.256 124.723 402.24 124.623 402.244 124.522C402.247 124.421 402.271 124.322 402.313 124.231C402.355 124.139 402.415 124.057 402.489 123.989C402.562 123.92 402.649 123.867 402.743 123.832C402.838 123.797 402.938 123.781 403.039 123.785C404.235 123.797 405.414 124.07 406.493 124.587C407.572 125.103 408.525 125.849 409.285 126.772C409.395 126.936 409.436 127.137 409.399 127.331C409.363 127.524 409.253 127.697 409.091 127.81L409.014 127.897Z" fill="#5049C2"/>
<path d="M422.574 183.805C422.476 183.627 422.454 183.418 422.51 183.224C422.566 183.029 422.697 182.865 422.874 182.767C424.152 181.999 425.185 180.883 425.853 179.551C426.521 178.218 426.796 176.723 426.647 175.24C426.635 175.14 426.643 175.038 426.671 174.941C426.699 174.844 426.746 174.754 426.809 174.675C426.872 174.596 426.951 174.531 427.039 174.483C427.128 174.436 427.226 174.406 427.326 174.396C427.528 174.375 427.731 174.434 427.889 174.561C428.047 174.688 428.148 174.873 428.17 175.075C428.343 176.849 428.009 178.635 427.208 180.227C426.406 181.819 425.169 183.15 423.641 184.067C423.554 184.121 423.457 184.157 423.356 184.173C423.255 184.19 423.151 184.185 423.052 184.161C422.952 184.137 422.859 184.092 422.777 184.031C422.694 183.97 422.625 183.893 422.574 183.805Z" fill="#5049C2"/>
<path d="M427.724 183.989C427.637 183.831 427.608 183.648 427.642 183.471C427.675 183.294 427.77 183.134 427.908 183.019C428.612 182.361 429.165 181.558 429.528 180.665C429.891 179.773 430.057 178.812 430.013 177.849C430.013 177.646 430.094 177.451 430.237 177.308C430.381 177.164 430.576 177.083 430.779 177.083C430.982 177.083 431.177 177.164 431.321 177.308C431.465 177.451 431.545 177.646 431.545 177.849C431.587 179.043 431.369 180.232 430.907 181.334C430.445 182.436 429.749 183.425 428.868 184.232C428.789 184.294 428.699 184.34 428.602 184.368C428.505 184.395 428.404 184.403 428.304 184.392C428.204 184.38 428.107 184.349 428.019 184.3C427.931 184.25 427.854 184.184 427.792 184.105L427.724 183.989Z" fill="#5049C2"/>
<path d="M338.499 276.211C338.68 276.302 338.818 276.461 338.884 276.653C338.949 276.846 338.936 277.056 338.849 277.239C338.234 278.597 338.019 280.101 338.229 281.577C338.438 283.052 339.064 284.437 340.032 285.571C340.163 285.727 340.227 285.928 340.211 286.132C340.195 286.335 340.099 286.524 339.945 286.657C339.791 286.789 339.592 286.854 339.39 286.84C339.189 286.825 339.001 286.732 338.868 286.579C337.705 285.216 336.956 283.548 336.708 281.773C336.461 279.998 336.726 278.189 337.471 276.56C337.563 276.379 337.722 276.241 337.914 276.175C338.106 276.11 338.316 276.123 338.499 276.211Z" fill="#5049C2"/>
<path d="M334.154 278.975C334.32 279.053 334.452 279.188 334.526 279.356C334.601 279.523 334.614 279.711 334.561 279.887C334.358 280.829 334.361 281.804 334.57 282.745C334.779 283.686 335.19 284.571 335.774 285.338C335.888 285.505 335.933 285.71 335.898 285.909C335.864 286.108 335.753 286.286 335.589 286.405C335.423 286.522 335.218 286.568 335.018 286.534C334.818 286.499 334.64 286.386 334.522 286.221C333.803 285.262 333.302 284.157 333.055 282.985C332.807 281.812 332.818 280.599 333.087 279.431C333.117 279.334 333.166 279.243 333.231 279.165C333.296 279.087 333.376 279.022 333.466 278.976C333.556 278.929 333.655 278.9 333.757 278.892C333.858 278.883 333.96 278.895 334.057 278.927L334.154 278.975Z" fill="#5049C2"/>
<path d="M281.496 9.9141C281.448 9.00965 281.187 8.12938 280.733 7.34541C280.28 6.56144 279.647 5.89608 278.886 5.40388L276.772 4.17205C275.963 3.76747 275.072 3.55682 274.168 3.55682C273.264 3.55682 272.372 3.76747 271.563 4.17205L222.436 32.5622C221.677 33.0555 221.045 33.7212 220.591 34.5049C220.138 35.2886 219.876 36.1683 219.827 37.0724V62.4751C219.877 63.379 220.139 64.2584 220.592 65.042C221.046 65.8256 221.677 66.4914 222.436 66.9853L224.56 68.2075C225.367 68.6188 226.259 68.8332 227.164 68.8332C228.07 68.8332 228.962 68.6188 229.769 68.2075L278.886 39.827C279.647 39.3348 280.28 38.6695 280.733 37.8855C281.187 37.1015 281.448 36.2213 281.496 35.3168V9.9141Z" fill="#00FFEA"/>
<path opacity="0.5" d="M281.496 9.9141C281.448 9.00965 281.187 8.12938 280.733 7.34541C280.28 6.56144 279.647 5.89608 278.886 5.40388L276.772 4.17205C275.963 3.76747 275.072 3.55682 274.168 3.55682C273.264 3.55682 272.372 3.76747 271.563 4.17205L222.436 32.5622C221.677 33.0555 221.045 33.7212 220.591 34.5049C220.138 35.2886 219.876 36.1683 219.827 37.0724V62.4751C219.877 63.379 220.139 64.2584 220.592 65.042C221.046 65.8256 221.677 66.4914 222.436 66.9853L224.56 68.2075C225.367 68.6188 226.259 68.8332 227.164 68.8332C228.07 68.8332 228.962 68.6188 229.769 68.2075L278.886 39.827C279.647 39.3348 280.28 38.6695 280.733 37.8855C281.187 37.1015 281.448 36.2213 281.496 35.3168V9.9141Z" fill="white"/>
<path opacity="0.2" d="M219.827 62.475C219.877 63.3789 220.139 64.2583 220.592 65.0419C221.046 65.8255 221.677 66.4913 222.436 66.9852L224.56 68.2074C225.294 68.5771 226.098 68.7873 226.919 68.8241C227.739 68.8608 228.559 68.7234 229.323 68.4207C228.091 68.8863 227.16 68.1977 227.16 66.704V41.3013C227.191 40.3931 227.455 39.5081 227.926 38.7309L220.593 34.502C220.121 35.2787 219.857 36.1639 219.827 37.0723V62.475Z" fill="black"/>
<path opacity="0.3" d="M281.409 9.17704C281.108 8.07131 280.099 7.71243 278.896 8.41079L229.769 36.7912C228.996 37.2656 228.36 37.9345 227.926 38.7311L220.603 34.5021C221.036 33.7081 221.668 33.0397 222.436 32.5623L271.554 4.18186C272.361 3.77055 273.253 3.55612 274.158 3.55612C275.064 3.55612 275.956 3.77055 276.763 4.18186L278.896 5.40398C279.549 5.83035 280.107 6.38456 280.539 7.03308C280.971 7.68159 281.267 8.41095 281.409 9.17704Z" fill="white"/>
<path d="M227.17 49.5169L219.846 45.288L211.02 53.7846C210.887 53.9183 210.787 54.0804 210.726 54.2586C210.665 54.4369 210.645 54.6267 210.669 54.8136C210.692 55.0005 210.758 55.1797 210.861 55.3375C210.964 55.4953 211.101 55.6277 211.263 55.7245L218.469 59.9146C218.767 60.0708 219.103 60.1413 219.439 60.1183L227.199 58.6343V49.5169H227.17Z" fill="#00FFEA"/>
<path opacity="0.5" d="M227.17 49.5169L219.846 45.288L211.02 53.7846C210.887 53.9183 210.787 54.0804 210.726 54.2586C210.665 54.4369 210.645 54.6267 210.669 54.8136C210.692 55.0005 210.758 55.1797 210.861 55.3375C210.964 55.4953 211.101 55.6277 211.263 55.7245L218.469 59.9146C218.767 60.0708 219.103 60.1413 219.439 60.1183L227.199 58.6343V49.5169H227.17Z" fill="white"/>
<path opacity="0.3" d="M218.469 59.9143L214.59 57.6932L214.134 57.3925L212.058 56.1898L211.806 56.0346L211.253 55.7145C211.091 55.6176 210.954 55.4853 210.851 55.3275C210.748 55.1697 210.683 54.9905 210.659 54.8036C210.636 54.6167 210.655 54.4269 210.716 54.2486C210.777 54.0703 210.878 53.9082 211.01 53.7746L219.837 45.278L227.17 49.5166L218.343 57.9744C218.203 58.099 218.093 58.2539 218.022 58.4273C217.951 58.6007 217.92 58.7881 217.932 58.9752C217.944 59.1623 217.999 59.3441 218.092 59.5069C218.185 59.6696 218.314 59.809 218.469 59.9143Z" fill="white"/>
<path d="M241.515 41.7088C240.501 42.3679 239.658 43.257 239.053 44.3036C238.448 45.3503 238.098 46.5249 238.033 47.7321C238.033 49.9436 239.594 50.8456 241.515 49.7399C242.527 49.0802 243.369 48.1908 243.972 47.1441C244.576 46.0974 244.924 44.923 244.987 43.7165C244.987 41.4857 243.435 40.603 241.515 41.7088Z" fill="white"/>
<path d="M254.328 34.2985C253.316 34.9582 252.474 35.8476 251.87 36.8943C251.267 37.9409 250.919 39.1153 250.855 40.3218C250.855 42.5333 252.407 43.4353 254.328 42.3199C255.339 41.6612 256.18 40.7733 256.783 39.7284C257.387 38.6835 257.735 37.5111 257.8 36.3063C257.781 34.0851 256.248 33.1831 254.328 34.2985Z" fill="white"/>
<path d="M267.141 26.8783C266.13 27.5397 265.289 28.4295 264.686 29.4758C264.083 30.5222 263.734 31.6957 263.668 32.9017C263.668 35.1228 265.22 36.0152 267.141 34.9094C268.155 34.2493 269 33.3587 269.605 32.3103C270.21 31.2618 270.559 30.0852 270.623 28.8764C270.623 26.6746 269.061 25.7726 267.141 26.8783Z" fill="white"/>
<path d="M376.055 59.7108L372.534 53.125L375.367 44.9484V39.9144L366.695 44.9193V49.9242L370.42 56.384C370.481 56.4805 370.569 56.5578 370.672 56.607L376.055 59.7108Z" fill="#00FFEA"/>
<path opacity="0.2" d="M376.055 59.7108L372.534 53.125L375.367 44.9484V39.9144L366.695 44.9193V49.9242L370.42 56.384C370.481 56.4805 370.569 56.5578 370.672 56.607L376.055 59.7108Z" fill="black"/>
<path d="M402.389 7.32969C402.341 6.42779 402.08 5.55001 401.629 4.76791C401.177 3.98581 400.547 3.32151 399.79 2.82918L397.675 1.60706C396.87 1.19583 395.979 0.981415 395.076 0.981415C394.172 0.981415 393.281 1.19583 392.476 1.60706L343.465 29.9196C342.711 30.418 342.084 31.085 341.633 31.8678C341.182 32.6507 340.919 33.5278 340.866 34.4298V59.7743C340.914 60.6762 341.174 61.554 341.626 62.3361C342.078 63.1182 342.708 63.7825 343.465 64.2748L345.58 65.4969C346.387 65.8999 347.277 66.1097 348.179 66.1097C349.081 66.1097 349.971 65.8999 350.778 65.4969L372.117 53.0817L375.842 59.5221C375.895 59.6082 375.972 59.6776 376.063 59.7224C376.154 59.7672 376.256 59.7856 376.357 59.7755C376.458 59.7654 376.554 59.7272 376.634 59.6653C376.715 59.6034 376.776 59.5202 376.812 59.4251L380.75 48.0865L399.741 37.1747C400.498 36.6824 401.128 36.0181 401.58 35.236C402.032 34.4539 402.292 33.5761 402.34 32.6742L402.389 7.32969Z" fill="#00FFEA"/>
<path d="M355.551 39.3323L394.736 16.7037C395.9 16.0344 396.841 16.5097 396.841 17.7706C396.788 18.4755 396.57 19.1581 396.205 19.7631C395.839 20.368 395.336 20.8784 394.736 21.2527L355.551 43.8813C354.397 44.5506 353.456 44.0753 353.456 42.8144C353.508 42.1106 353.725 41.4288 354.089 40.824C354.453 40.2193 354.953 39.7083 355.551 39.3323Z" fill="white"/>
<path d="M355.551 49.41L394.736 26.791C395.9 26.1218 396.841 26.5971 396.841 27.8483C396.79 28.5549 396.572 29.2394 396.207 29.8462C395.841 30.4529 395.337 30.9648 394.736 31.3401L355.551 53.9591C354.397 54.638 353.456 54.153 353.456 52.9018C353.507 52.1963 353.723 51.5126 354.087 50.906C354.451 50.2995 354.952 49.787 355.551 49.41Z" fill="white"/>
<path opacity="0.2" d="M340.866 59.7689C340.914 60.6708 341.174 61.5485 341.626 62.3306C342.078 63.1127 342.708 63.777 343.465 64.2694L345.58 65.4915C346.312 65.8598 347.114 66.0693 347.933 66.106C348.752 66.1428 349.57 66.0061 350.332 65.7049C349.11 66.1608 348.179 65.4721 348.179 63.9881V38.6436C348.21 37.7397 348.47 36.8586 348.936 36.0829L341.622 31.854C341.157 32.6332 340.897 33.5174 340.866 34.4243V59.7689Z" fill="black"/>
<path opacity="0.2" d="M402.302 6.56782C402.001 5.46209 400.992 5.11291 399.79 5.80156L350.779 34.1238C350.007 34.5974 349.375 35.2667 348.945 36.0637L341.632 31.8444C342.067 31.0516 342.698 30.3837 343.465 29.9046L392.466 1.58233C393.275 1.17775 394.167 0.967102 395.071 0.967102C395.975 0.967102 396.867 1.17775 397.675 1.58233L399.79 2.80445C400.442 3.22761 401.002 3.77969 401.434 4.42682C401.866 5.07396 402.161 5.80252 402.302 6.56782Z" fill="white"/>
</svg>
