<svg width="27" height="27" viewBox="0 0 27 27" fill="none" xmlns="http://www.w3.org/2000/svg">
<path d="M0.375 21.1563V26.625H5.84375L21.9729 10.4959L16.5042 5.02711L0.375 21.1563ZM26.2021 6.26669C26.3373 6.13178 26.4445 5.97152 26.5177 5.7951C26.5909 5.61868 26.6286 5.42956 26.6286 5.23857C26.6286 5.04757 26.5909 4.85845 26.5177 4.68203C26.4445 4.50561 26.3373 4.34536 26.2021 4.21044L22.7896 0.797941C22.6547 0.662748 22.4944 0.555491 22.318 0.48231C22.1416 0.409129 21.9525 0.37146 21.7615 0.37146C21.5705 0.37146 21.3813 0.409129 21.2049 0.48231C21.0285 0.555491 20.8682 0.662748 20.7333 0.797941L18.0646 3.46669L23.5333 8.93544L26.2021 6.26669Z" fill="#F5B027"/>
</svg>
