<svg width="234" height="97" viewBox="0 0 234 97" fill="none" xmlns="http://www.w3.org/2000/svg">
<path d="M17.7235 90H9.9155C7.24883 90 5.26483 89.4667 3.9635 88.4C2.6835 87.3333 2.0435 85.6907 2.0435 83.472V73.52C2.0435 71.3013 2.6835 69.6587 3.9635 68.592C5.26483 67.504 7.24883 66.96 9.9155 66.96H17.7235C18.1288 66.96 18.4168 67.056 18.5875 67.248C18.7795 67.4187 18.8755 67.7067 18.8755 68.112V71.984C18.8755 72.3893 18.7795 72.688 18.5875 72.88C18.4168 73.0507 18.1288 73.136 17.7235 73.136H11.2915C10.6302 73.136 10.1395 73.2747 9.8195 73.552C9.4995 73.808 9.3395 74.2027 9.3395 74.736V82.352C9.3395 82.8853 9.4995 83.28 9.8195 83.536C10.1395 83.7707 10.6302 83.888 11.2915 83.888H17.7235C18.1288 83.888 18.4168 83.984 18.5875 84.176C18.7795 84.3467 18.8755 84.6347 18.8755 85.04V88.848C18.8755 89.2533 18.7795 89.552 18.5875 89.744C18.4168 89.9147 18.1288 90 17.7235 90ZM30.8413 73.68L29.3373 78.544H34.3613L32.8573 73.68C32.7719 73.488 32.6759 73.3493 32.5693 73.264C32.4839 73.1787 32.3773 73.136 32.2493 73.136H31.4493C31.3213 73.136 31.2039 73.1787 31.0973 73.264C31.0119 73.3493 30.9266 73.488 30.8413 73.68ZM29.0173 88.848C29.0173 89.2533 28.9213 89.552 28.7292 89.744C28.5586 89.9147 28.2706 90 27.8653 90H23.1613C22.7559 90 22.4573 89.9147 22.2653 89.744C22.0946 89.552 22.0093 89.2533 22.0093 88.848V80.4C22.0093 79.76 22.1053 79.024 22.2973 78.192C22.5106 77.36 22.8306 76.3893 23.2573 75.28L26.0413 68.016C26.1693 67.6533 26.3613 67.3867 26.6173 67.216C26.8946 67.0453 27.2466 66.96 27.6733 66.96H36.2812C36.6866 66.96 37.0173 67.0453 37.2733 67.216C37.5506 67.3867 37.7533 67.6533 37.8813 68.016L40.6653 75.28C41.0919 76.3893 41.4013 77.36 41.5933 78.192C41.8066 79.024 41.9133 79.76 41.9133 80.4V88.848C41.9133 89.2533 41.8173 89.552 41.6253 89.744C41.4546 89.9147 41.1666 90 40.7613 90H35.9293C35.5026 90 35.1826 89.9147 34.9693 89.744C34.7773 89.552 34.6813 89.2533 34.6813 88.848V84.368H29.0173V88.848ZM51.7843 90H47.0163C46.6109 90 46.3123 89.9147 46.1203 89.744C45.9496 89.552 45.8643 89.2533 45.8643 88.848V68.112C45.8643 67.7067 45.9496 67.4187 46.1203 67.248C46.3123 67.056 46.6109 66.96 47.0163 66.96H52.1683C52.5096 66.96 52.7869 67.0347 53.0003 67.184C53.2349 67.3333 53.4483 67.5787 53.6403 67.92L56.5203 73.136C56.6269 73.328 56.7123 73.4667 56.7763 73.552C56.8616 73.6373 56.9683 73.68 57.0963 73.68H57.3843C57.5123 73.68 57.6083 73.6373 57.6723 73.552C57.7576 73.4667 57.8536 73.328 57.9603 73.136L60.8083 67.92C61.0003 67.5787 61.2029 67.3333 61.4163 67.184C61.6509 67.0347 61.9389 66.96 62.2803 66.96H67.4643C67.8696 66.96 68.1576 67.056 68.3283 67.248C68.5203 67.4187 68.6163 67.7067 68.6163 68.112V88.848C68.6163 89.2533 68.5203 89.552 68.3283 89.744C68.1576 89.9147 67.8696 90 67.4643 90H62.5363C62.1309 90 61.8323 89.9147 61.6403 89.744C61.4696 89.552 61.3843 89.2533 61.3843 88.848V77.584L59.4963 81.072C59.3043 81.4347 59.0696 81.7013 58.7923 81.872C58.5363 82.0213 58.2056 82.096 57.8003 82.096H56.5203C56.1149 82.096 55.7736 82.0213 55.4963 81.872C55.2403 81.7013 55.0163 81.4347 54.8243 81.072L52.9363 77.584V88.848C52.9363 89.2533 52.8403 89.552 52.6483 89.744C52.4776 89.9147 52.1896 90 51.7843 90ZM79.1325 90H74.1725C73.7672 90 73.4685 89.9147 73.2765 89.744C73.1058 89.552 73.0205 89.2533 73.0205 88.848V68.112C73.0205 67.7067 73.1058 67.4187 73.2765 67.248C73.4685 67.056 73.7672 66.96 74.1725 66.96H83.9645C86.8658 66.96 88.8498 67.536 89.9165 68.688C90.9832 69.84 91.5165 71.344 91.5165 73.2V77.296C91.5165 79.152 90.9832 80.656 89.9165 81.808C88.8498 82.96 86.8658 83.536 83.9645 83.536H80.2845V88.848C80.2845 89.2533 80.1885 89.552 79.9965 89.744C79.8258 89.9147 79.5378 90 79.1325 90ZM80.2205 72.944V77.776H83.1005C83.7192 77.776 84.1245 77.616 84.3165 77.296C84.5085 76.976 84.6045 76.6133 84.6045 76.208V74.512C84.6045 74.1067 84.5085 73.744 84.3165 73.424C84.1245 73.104 83.7192 72.944 83.1005 72.944H80.2205ZM114.449 83.952C114.449 84.9333 114.3 85.8293 114.001 86.64C113.724 87.4293 113.212 88.112 112.465 88.688C111.74 89.2427 110.737 89.68 109.457 90C108.177 90.32 106.545 90.48 104.561 90.48C102.577 90.48 100.945 90.32 99.665 90C98.385 89.68 97.3717 89.2427 96.625 88.688C95.8997 88.112 95.3877 87.4293 95.089 86.64C94.8117 85.8293 94.673 84.9333 94.673 83.952V68.112C94.673 67.7067 94.7583 67.4187 94.929 67.248C95.121 67.056 95.4197 66.96 95.825 66.96H100.849C101.254 66.96 101.542 67.056 101.713 67.248C101.905 67.4187 102.001 67.7067 102.001 68.112V82.704C102.001 83.1307 102.161 83.4933 102.481 83.792C102.801 84.0693 103.516 84.208 104.625 84.208C105.756 84.208 106.481 84.0693 106.801 83.792C107.121 83.4933 107.281 83.1307 107.281 82.704V68.112C107.281 67.7067 107.366 67.4187 107.537 67.248C107.729 67.056 108.028 66.96 108.433 66.96H113.297C113.702 66.96 113.99 67.056 114.161 67.248C114.353 67.4187 114.449 67.7067 114.449 68.112V83.952ZM129.396 90H119.284C118.879 90 118.58 89.9147 118.388 89.744C118.217 89.552 118.132 89.2533 118.132 88.848V85.104C118.132 84.6987 118.217 84.4107 118.388 84.24C118.58 84.048 118.879 83.952 119.284 83.952H127.892C128.169 83.952 128.372 83.8667 128.5 83.696C128.649 83.504 128.724 83.28 128.724 83.024C128.724 82.6613 128.649 82.3947 128.5 82.224C128.372 82.0533 128.169 81.9573 127.892 81.936L123.092 81.264C121.599 81.0507 120.393 80.56 119.476 79.792C118.58 79.024 118.132 77.744 118.132 75.952V72.592C118.132 70.7787 118.719 69.392 119.892 68.432C121.065 67.4507 122.687 66.96 124.756 66.96H133.716C134.121 66.96 134.409 67.056 134.58 67.248C134.772 67.4187 134.868 67.7067 134.868 68.112V71.92C134.868 72.3253 134.772 72.624 134.58 72.816C134.409 72.9867 134.121 73.072 133.716 73.072H126.26C125.983 73.072 125.769 73.168 125.62 73.36C125.471 73.5307 125.396 73.7547 125.396 74.032C125.396 74.3093 125.471 74.544 125.62 74.736C125.769 74.928 125.983 75.0347 126.26 75.056L131.028 75.696C132.521 75.9093 133.727 76.4 134.644 77.168C135.561 77.936 136.02 79.216 136.02 81.008V84.368C136.02 86.1813 135.423 87.5787 134.228 88.56C133.055 89.52 131.444 90 129.396 90ZM163.161 90H155.353C152.686 90 150.702 89.4667 149.401 88.4C148.121 87.3333 147.481 85.6907 147.481 83.472V73.52C147.481 71.3013 148.121 69.6587 149.401 68.592C150.702 67.504 152.686 66.96 155.353 66.96H163.161C163.566 66.96 163.854 67.056 164.025 67.248C164.217 67.4187 164.313 67.7067 164.313 68.112V71.984C164.313 72.3893 164.217 72.688 164.025 72.88C163.854 73.0507 163.566 73.136 163.161 73.136H156.729C156.068 73.136 155.577 73.2747 155.257 73.552C154.937 73.808 154.777 74.2027 154.777 74.736V82.352C154.777 82.8853 154.937 83.28 155.257 83.536C155.577 83.7707 156.068 83.888 156.729 83.888H163.161C163.566 83.888 163.854 83.984 164.025 84.176C164.217 84.3467 164.313 84.6347 164.313 85.04V88.848C164.313 89.2533 164.217 89.552 164.025 89.744C163.854 89.9147 163.566 90 163.161 90ZM176.279 73.68L174.775 78.544H179.799L178.295 73.68C178.209 73.488 178.113 73.3493 178.007 73.264C177.921 73.1787 177.815 73.136 177.687 73.136H176.887C176.759 73.136 176.641 73.1787 176.535 73.264C176.449 73.3493 176.364 73.488 176.279 73.68ZM174.455 88.848C174.455 89.2533 174.359 89.552 174.167 89.744C173.996 89.9147 173.708 90 173.303 90H168.599C168.193 90 167.895 89.9147 167.703 89.744C167.532 89.552 167.447 89.2533 167.447 88.848V80.4C167.447 79.76 167.543 79.024 167.735 78.192C167.948 77.36 168.268 76.3893 168.695 75.28L171.479 68.016C171.607 67.6533 171.799 67.3867 172.055 67.216C172.332 67.0453 172.684 66.96 173.111 66.96H181.719C182.124 66.96 182.455 67.0453 182.711 67.216C182.988 67.3867 183.191 67.6533 183.319 68.016L186.103 75.28C186.529 76.3893 186.839 77.36 187.031 78.192C187.244 79.024 187.351 79.76 187.351 80.4V88.848C187.351 89.2533 187.255 89.552 187.063 89.744C186.892 89.9147 186.604 90 186.199 90H181.367C180.94 90 180.62 89.9147 180.407 89.744C180.215 89.552 180.119 89.2533 180.119 88.848V84.368H174.455V88.848ZM198.534 72.72V76.816H200.934C201.488 76.816 201.862 76.6773 202.054 76.4C202.246 76.1013 202.342 75.7387 202.342 75.312V74.224C202.342 73.7973 202.246 73.4453 202.054 73.168C201.862 72.8693 201.488 72.72 200.934 72.72H198.534ZM197.382 90H192.454C192.048 90 191.75 89.9147 191.558 89.744C191.387 89.552 191.302 89.2533 191.302 88.848V68.112C191.302 67.7067 191.387 67.4187 191.558 67.248C191.75 67.056 192.048 66.96 192.454 66.96H203.11C205.499 66.96 207.142 67.4613 208.038 68.464C208.955 69.4453 209.414 70.7253 209.414 72.304V73.776C209.414 74.672 209.275 75.44 208.998 76.08C208.742 76.6987 208.283 77.1467 207.622 77.424C208.774 77.552 209.702 78.0213 210.406 78.832C211.131 79.6427 211.494 80.72 211.494 82.064V88.848C211.494 89.2533 211.398 89.552 211.206 89.744C211.035 89.9147 210.747 90 210.342 90H205.382C204.976 90 204.678 89.9147 204.486 89.744C204.315 89.552 204.23 89.2533 204.23 88.848V83.952C204.23 83.4827 204.134 83.1413 203.942 82.928C203.771 82.6933 203.462 82.576 203.014 82.576H198.534V88.848C198.534 89.2533 198.438 89.552 198.246 89.744C198.075 89.9147 197.787 90 197.382 90ZM231.083 90H216.235C215.83 90 215.531 89.9147 215.339 89.744C215.168 89.552 215.083 89.2533 215.083 88.848V68.112C215.083 67.7067 215.168 67.4187 215.339 67.248C215.531 67.056 215.83 66.96 216.235 66.96H231.083C231.488 66.96 231.776 67.056 231.947 67.248C232.139 67.4187 232.235 67.7067 232.235 68.112V71.856C232.235 72.2613 232.139 72.56 231.947 72.752C231.776 72.9227 231.488 73.008 231.083 73.008H222.251V75.472H228.491C228.896 75.472 229.184 75.568 229.355 75.76C229.547 75.9307 229.643 76.2187 229.643 76.624V80.048C229.643 80.4533 229.547 80.752 229.355 80.944C229.184 81.1147 228.896 81.2 228.491 81.2H222.251V83.952H231.083C231.488 83.952 231.776 84.048 231.947 84.24C232.139 84.4107 232.235 84.6987 232.235 85.104V88.848C232.235 89.2533 232.139 89.552 231.947 89.744C231.776 89.9147 231.488 90 231.083 90Z" fill="white"/>
<rect x="90" y="17.377" width="17.377" height="17.377" fill="#00FFEA"/>
<rect x="108.246" y="34.754" width="17.377" height="17.377" fill="#00FFEA"/>
<rect x="125.623" y="17.377" width="17.377" height="17.377" fill="#00FFEA"/>
<rect x="108.246" width="17.377" height="17.377" fill="#00FFEA"/>
</svg>
