<svg width="31" height="30" viewBox="0 0 31 30" fill="none" xmlns="http://www.w3.org/2000/svg">
<path fill-rule="evenodd" clip-rule="evenodd" d="M14.0417 0.416687C11.9451 0.416914 9.87916 0.919376 8.01669 1.88201C6.15422 2.84464 4.54945 4.23944 3.33672 5.94963C2.124 7.65983 1.33861 9.63565 1.04629 11.7117C0.75398 13.7878 0.963252 15.9036 1.65659 17.8822C2.34993 19.8608 3.50716 21.6445 5.03141 23.084C6.55565 24.5235 8.40256 25.5769 10.4175 26.156C12.4325 26.7351 14.5569 26.8231 16.6128 26.4127C18.6688 26.0022 20.5965 25.1052 22.2346 23.7967L27.594 29.1561C27.869 29.4217 28.2374 29.5687 28.6198 29.5654C29.0021 29.5621 29.3679 29.4087 29.6383 29.1383C29.9087 28.8679 30.062 28.5021 30.0654 28.1198C30.0687 27.7374 29.9217 27.369 29.656 27.094L24.2967 21.7346C25.8396 19.8036 26.8059 17.4761 27.0843 15.0201C27.3627 12.5641 26.9419 10.0794 25.8704 7.85199C24.7989 5.62458 23.1203 3.74501 21.0276 2.42961C18.935 1.11422 16.5134 0.416473 14.0417 0.416687ZM5.29167 13.5417C5.29167 12.3926 5.518 11.2548 5.95773 10.1932C6.39745 9.13161 7.04198 8.16702 7.85449 7.3545C8.667 6.54199 9.63159 5.89747 10.6932 5.45774C11.7548 5.01801 12.8926 4.79169 14.0417 4.79169C15.1907 4.79169 16.3286 5.01801 17.3902 5.45774C18.4518 5.89747 19.4163 6.54199 20.2289 7.3545C21.0414 8.16702 21.6859 9.13161 22.1256 10.1932C22.5653 11.2548 22.7917 12.3926 22.7917 13.5417C22.7917 15.8623 21.8698 18.0879 20.2289 19.7289C18.5879 21.3698 16.3623 22.2917 14.0417 22.2917C11.721 22.2917 9.49543 21.3698 7.85449 19.7289C6.21354 18.0879 5.29167 15.8623 5.29167 13.5417Z" fill="#07016C"/>
</svg>
