<svg width="38" height="38" viewBox="0 0 38 38" fill="none" xmlns="http://www.w3.org/2000/svg">
<g clip-path="url(#clip0_116_120)">
<path fill-rule="evenodd" clip-rule="evenodd" d="M12.3036 2.80357C12.3036 2.09317 12.0214 1.41186 11.519 0.909535C11.0167 0.407206 10.3354 0.125 9.625 0.125C8.9146 0.125 8.23329 0.407206 7.73096 0.909535C7.22863 1.41186 6.94643 2.09317 6.94643 2.80357V5.48214H4.26786C3.20226 5.48214 2.1803 5.90545 1.4268 6.65895C0.673309 7.41244 0.25 8.4344 0.25 9.5L0.25 33.6071C0.25 34.6727 0.673309 35.6947 1.4268 36.4482C2.1803 37.2017 3.20226 37.625 4.26786 37.625H33.7321C34.7977 37.625 35.8197 37.2017 36.5732 36.4482C37.3267 35.6947 37.75 34.6727 37.75 33.6071V9.5C37.75 8.4344 37.3267 7.41244 36.5732 6.65895C35.8197 5.90545 34.7977 5.48214 33.7321 5.48214H31.0536V2.80357C31.0536 2.09317 30.7714 1.41186 30.269 0.909535C29.7667 0.407206 29.0854 0.125 28.375 0.125C27.6646 0.125 26.9833 0.407206 26.481 0.909535C25.9786 1.41186 25.6964 2.09317 25.6964 2.80357V5.48214H12.3036V2.80357ZM16.2411 14.6643C16.2411 14.083 16.7125 13.6143 17.2938 13.6143H20.7089C21.2875 13.6143 21.7589 14.083 21.7589 14.6643V18.8429H25.9375C26.5188 18.8429 26.9875 19.3143 26.9875 19.8929V23.308C26.9886 23.4463 26.9622 23.5835 26.9098 23.7115C26.8574 23.8395 26.7802 23.9559 26.6825 24.0538C26.5848 24.1517 26.4687 24.2293 26.3408 24.282C26.2129 24.3347 26.0758 24.3614 25.9375 24.3607H21.7589V28.5393C21.7596 28.6774 21.733 28.8142 21.6804 28.9419C21.6279 29.0697 21.5506 29.1857 21.453 29.2833C21.3553 29.381 21.2393 29.4583 21.1116 29.5108C20.9839 29.5633 20.847 29.59 20.7089 29.5893H17.2911C17.153 29.59 17.0161 29.5633 16.8884 29.5108C16.7607 29.4583 16.6447 29.381 16.547 29.2833C16.4494 29.1857 16.3721 29.0697 16.3196 28.9419C16.267 28.8142 16.2404 28.6774 16.2411 28.5393V24.3607H12.0625C11.9242 24.3614 11.7871 24.3347 11.6592 24.282C11.5313 24.2293 11.4152 24.1517 11.3175 24.0538C11.2198 23.9559 11.1426 23.8395 11.0902 23.7115C11.0378 23.5835 11.0114 23.4463 11.0125 23.308V19.8929C11.0125 19.3143 11.4812 18.8429 12.0625 18.8429H16.2411V14.6643Z" fill="#F8F8F8"/>
</g>
<defs>
<clipPath id="clip0_116_120">
<rect width="37.5" height="37.5" fill="white" transform="translate(0.25 0.125)"/>
</clipPath>
</defs>
</svg>
