<svg width="39" height="38" viewBox="0 0 39 38" fill="none" xmlns="http://www.w3.org/2000/svg">
<path d="M26.9958 23.924L31.0812 19.8C31.9035 18.9778 32.533 18.0399 32.9698 16.9865C33.4066 15.933 33.625 14.8281 33.625 13.6719C33.625 11.2566 32.7838 9.20721 31.1013 7.52371C29.4188 5.84021 27.3694 4.99897 24.9531 5C23.7969 5 22.692 5.2184 21.6385 5.65521C20.5851 6.09201 19.6472 6.72153 18.825 7.54375L14.701 11.6292L26.9958 23.924ZM14.5469 32.75C15.7031 32.75 16.808 32.5316 17.8615 32.0948C18.9149 31.658 19.8528 31.0285 20.675 30.2062L24.799 26.1208L12.5042 13.826L8.41875 17.95C7.59653 18.7722 6.96701 19.7101 6.53021 20.7635C6.0934 21.817 5.875 22.9219 5.875 24.0781C5.875 26.4934 6.71675 28.5423 8.40025 30.2247C10.0837 31.9072 12.1326 32.749 14.5469 32.75Z" fill="#F8F8F8"/>
</svg>
