<svg width="31" height="33" viewBox="0 0 31 33" fill="none" xmlns="http://www.w3.org/2000/svg">
<path fill-rule="evenodd" clip-rule="evenodd" d="M15.5 0.916656C7.44558 0.916656 0.916626 7.44561 0.916626 15.5C0.916626 23.5544 7.44558 30.0833 15.5 30.0833C23.5543 30.0833 30.0833 23.5544 30.0833 15.5C30.0833 7.44561 23.5543 0.916656 15.5 0.916656ZM10.3958 11.8542C10.3958 11.1839 10.5278 10.5201 10.7843 9.90088C11.0408 9.28161 11.4168 8.71893 11.8908 8.24496C12.3647 7.771 12.9274 7.39503 13.5467 7.13852C14.1659 6.88201 14.8297 6.74999 15.5 6.74999C16.1702 6.74999 16.834 6.88201 17.4532 7.13852C18.0725 7.39503 18.6352 7.771 19.1091 8.24496C19.5831 8.71893 19.9591 9.28161 20.2156 9.90088C20.4721 10.5201 20.6041 11.1839 20.6041 11.8542C20.6041 13.2079 20.0664 14.5061 19.1091 15.4633C18.1519 16.4206 16.8537 16.9583 15.5 16.9583C14.1462 16.9583 12.848 16.4206 11.8908 15.4633C10.9336 14.5061 10.3958 13.2079 10.3958 11.8542ZM24.6262 22.7683C23.5342 24.1411 22.1463 25.2497 20.5661 26.0112C18.9859 26.7728 17.2541 27.1678 15.5 27.1667C13.7458 27.1678 12.014 26.7728 10.4338 26.0112C8.8536 25.2497 7.46572 24.1411 6.37371 22.7683C8.73767 21.0723 11.9635 19.875 15.5 19.875C19.0364 19.875 22.2622 21.0723 24.6262 22.7683Z" fill="#F8F8F8"/>
</svg>
